<mxfile host="app.diagrams.net" agent="Mozilla/5.0 (X11; Linux x86_64) AppleWebKit/537.36 (KHTML, like Gecko) Chrome/131.0.0.0 Safari/537.36" version="26.0.3">
  <diagram name="Page-1" id="1OBKafcn7vUaeqVtVAz-">
    <mxGraphModel dx="4536" dy="2637" grid="1" gridSize="10" guides="1" tooltips="1" connect="1" arrows="1" fold="1" page="1" pageScale="1" pageWidth="850" pageHeight="1100" math="0" shadow="0">
      <root>
        <mxCell id="0" />
        <mxCell id="1" parent="0" />
        <mxCell id="J5Li6relta-b_0hQ9GDX-1" value="&lt;b&gt;0&lt;/b&gt;" style="ellipse;shape=doubleEllipse;whiteSpace=wrap;html=1;aspect=fixed;fontSize=17;" parent="1" vertex="1">
          <mxGeometry x="-300" y="-200" width="40" height="40" as="geometry" />
        </mxCell>
        <mxCell id="J5Li6relta-b_0hQ9GDX-2" value="1" style="ellipse;whiteSpace=wrap;html=1;aspect=fixed;fontSize=17;" parent="1" vertex="1">
          <mxGeometry x="-180" y="-280" width="40" height="40" as="geometry" />
        </mxCell>
        <mxCell id="J5Li6relta-b_0hQ9GDX-6" value="" style="curved=1;endArrow=classic;html=1;rounded=0;entryX=0;entryY=0.5;entryDx=0;entryDy=0;exitX=1;exitY=0.5;exitDx=0;exitDy=0;fontSize=17;" parent="1" source="J5Li6relta-b_0hQ9GDX-1" target="J5Li6relta-b_0hQ9GDX-2" edge="1">
          <mxGeometry width="50" height="50" relative="1" as="geometry">
            <mxPoint x="-330" y="-90" as="sourcePoint" />
            <mxPoint x="-280" y="-140" as="targetPoint" />
            <Array as="points" />
          </mxGeometry>
        </mxCell>
        <mxCell id="J5Li6relta-b_0hQ9GDX-14" value="&lt;font&gt;p&lt;/font&gt;" style="edgeLabel;html=1;align=center;verticalAlign=middle;resizable=0;points=[];fontSize=17;" parent="J5Li6relta-b_0hQ9GDX-6" vertex="1" connectable="0">
          <mxGeometry x="-0.0866" relative="1" as="geometry">
            <mxPoint y="-10" as="offset" />
          </mxGeometry>
        </mxCell>
        <mxCell id="J5Li6relta-b_0hQ9GDX-10" value="2" style="ellipse;whiteSpace=wrap;html=1;aspect=fixed;fontSize=17;" parent="1" vertex="1">
          <mxGeometry x="-60" y="-280" width="40" height="40" as="geometry" />
        </mxCell>
        <mxCell id="J5Li6relta-b_0hQ9GDX-11" value="" style="curved=1;endArrow=classic;html=1;rounded=0;entryX=0;entryY=0.5;entryDx=0;entryDy=0;exitX=1;exitY=0.5;exitDx=0;exitDy=0;fontSize=17;" parent="1" source="J5Li6relta-b_0hQ9GDX-2" target="J5Li6relta-b_0hQ9GDX-10" edge="1">
          <mxGeometry width="50" height="50" relative="1" as="geometry">
            <mxPoint x="-120" y="-240" as="sourcePoint" />
            <mxPoint x="-130" y="-220" as="targetPoint" />
            <Array as="points" />
          </mxGeometry>
        </mxCell>
        <mxCell id="J5Li6relta-b_0hQ9GDX-13" value="&lt;font&gt;r&lt;/font&gt;" style="edgeLabel;html=1;align=center;verticalAlign=middle;resizable=0;points=[];fontSize=17;" parent="J5Li6relta-b_0hQ9GDX-11" vertex="1" connectable="0">
          <mxGeometry x="-0.1074" y="-1" relative="1" as="geometry">
            <mxPoint y="-11" as="offset" />
          </mxGeometry>
        </mxCell>
        <mxCell id="J5Li6relta-b_0hQ9GDX-20" value="3" style="ellipse;whiteSpace=wrap;html=1;aspect=fixed;fontSize=17;" parent="1" vertex="1">
          <mxGeometry x="60" y="-280" width="40" height="40" as="geometry" />
        </mxCell>
        <mxCell id="J5Li6relta-b_0hQ9GDX-21" value="" style="curved=1;endArrow=classic;html=1;rounded=0;entryX=0;entryY=0.5;entryDx=0;entryDy=0;exitX=1;exitY=0.5;exitDx=0;exitDy=0;fontSize=17;" parent="1" target="J5Li6relta-b_0hQ9GDX-20" edge="1">
          <mxGeometry width="50" height="50" relative="1" as="geometry">
            <mxPoint x="-20" y="-260" as="sourcePoint" />
            <mxPoint x="-40" y="-220" as="targetPoint" />
            <Array as="points" />
          </mxGeometry>
        </mxCell>
        <mxCell id="J5Li6relta-b_0hQ9GDX-22" value="&lt;span&gt;o&lt;/span&gt;" style="edgeLabel;html=1;align=center;verticalAlign=middle;resizable=0;points=[];fontSize=17;" parent="J5Li6relta-b_0hQ9GDX-21" vertex="1" connectable="0">
          <mxGeometry x="-0.0866" relative="1" as="geometry">
            <mxPoint x="1" y="-10" as="offset" />
          </mxGeometry>
        </mxCell>
        <mxCell id="J5Li6relta-b_0hQ9GDX-23" value="4" style="ellipse;whiteSpace=wrap;html=1;aspect=fixed;fontSize=17;" parent="1" vertex="1">
          <mxGeometry x="180" y="-280" width="40" height="40" as="geometry" />
        </mxCell>
        <mxCell id="J5Li6relta-b_0hQ9GDX-24" value="" style="curved=1;endArrow=classic;html=1;rounded=0;entryX=0;entryY=0.5;entryDx=0;entryDy=0;exitX=1;exitY=0.5;exitDx=0;exitDy=0;fontSize=17;" parent="1" source="J5Li6relta-b_0hQ9GDX-20" target="J5Li6relta-b_0hQ9GDX-23" edge="1">
          <mxGeometry width="50" height="50" relative="1" as="geometry">
            <mxPoint x="120" y="-240" as="sourcePoint" />
            <mxPoint x="110" y="-220" as="targetPoint" />
            <Array as="points" />
          </mxGeometry>
        </mxCell>
        <mxCell id="J5Li6relta-b_0hQ9GDX-25" value="&lt;font&gt;g&lt;/font&gt;" style="edgeLabel;html=1;align=center;verticalAlign=middle;resizable=0;points=[];fontSize=17;" parent="J5Li6relta-b_0hQ9GDX-24" vertex="1" connectable="0">
          <mxGeometry x="-0.1074" y="-1" relative="1" as="geometry">
            <mxPoint y="-11" as="offset" />
          </mxGeometry>
        </mxCell>
        <mxCell id="J5Li6relta-b_0hQ9GDX-27" value="5" style="ellipse;whiteSpace=wrap;html=1;aspect=fixed;fontSize=17;" parent="1" vertex="1">
          <mxGeometry x="300" y="-280" width="40" height="40" as="geometry" />
        </mxCell>
        <mxCell id="J5Li6relta-b_0hQ9GDX-28" value="" style="curved=1;endArrow=classic;html=1;rounded=0;entryX=0;entryY=0.5;entryDx=0;entryDy=0;fontSize=17;" parent="1" source="J5Li6relta-b_0hQ9GDX-23" target="J5Li6relta-b_0hQ9GDX-27" edge="1">
          <mxGeometry width="50" height="50" relative="1" as="geometry">
            <mxPoint x="220" y="-260" as="sourcePoint" />
            <mxPoint x="200" y="-220" as="targetPoint" />
            <Array as="points" />
          </mxGeometry>
        </mxCell>
        <mxCell id="J5Li6relta-b_0hQ9GDX-29" value="r" style="edgeLabel;html=1;align=center;verticalAlign=middle;resizable=0;points=[];fontSize=17;" parent="J5Li6relta-b_0hQ9GDX-28" vertex="1" connectable="0">
          <mxGeometry x="-0.0866" relative="1" as="geometry">
            <mxPoint y="-10" as="offset" />
          </mxGeometry>
        </mxCell>
        <mxCell id="J5Li6relta-b_0hQ9GDX-30" value="6" style="ellipse;whiteSpace=wrap;html=1;aspect=fixed;fontSize=17;" parent="1" vertex="1">
          <mxGeometry x="420" y="-280" width="40" height="40" as="geometry" />
        </mxCell>
        <mxCell id="J5Li6relta-b_0hQ9GDX-31" value="" style="curved=1;endArrow=classic;html=1;rounded=0;entryX=0;entryY=0.5;entryDx=0;entryDy=0;exitX=1;exitY=0.5;exitDx=0;exitDy=0;fontSize=17;" parent="1" source="J5Li6relta-b_0hQ9GDX-27" target="J5Li6relta-b_0hQ9GDX-30" edge="1">
          <mxGeometry width="50" height="50" relative="1" as="geometry">
            <mxPoint x="360" y="-240" as="sourcePoint" />
            <mxPoint x="350" y="-220" as="targetPoint" />
            <Array as="points" />
          </mxGeometry>
        </mxCell>
        <mxCell id="J5Li6relta-b_0hQ9GDX-32" value="a" style="edgeLabel;html=1;align=center;verticalAlign=middle;resizable=0;points=[];fontSize=17;" parent="J5Li6relta-b_0hQ9GDX-31" vertex="1" connectable="0">
          <mxGeometry x="-0.1074" y="-1" relative="1" as="geometry">
            <mxPoint y="-11" as="offset" />
          </mxGeometry>
        </mxCell>
        <mxCell id="J5Li6relta-b_0hQ9GDX-33" value="7" style="ellipse;whiteSpace=wrap;html=1;aspect=fixed;fontSize=17;" parent="1" vertex="1">
          <mxGeometry x="540" y="-280" width="40" height="40" as="geometry" />
        </mxCell>
        <mxCell id="J5Li6relta-b_0hQ9GDX-34" value="" style="curved=1;endArrow=classic;html=1;rounded=0;entryX=0;entryY=0.5;entryDx=0;entryDy=0;exitX=1;exitY=0.5;exitDx=0;exitDy=0;fontSize=17;" parent="1" target="J5Li6relta-b_0hQ9GDX-33" edge="1">
          <mxGeometry width="50" height="50" relative="1" as="geometry">
            <mxPoint x="460" y="-260" as="sourcePoint" />
            <mxPoint x="440" y="-220" as="targetPoint" />
            <Array as="points" />
          </mxGeometry>
        </mxCell>
        <mxCell id="J5Li6relta-b_0hQ9GDX-35" value="m" style="edgeLabel;html=1;align=center;verticalAlign=middle;resizable=0;points=[];fontSize=17;" parent="J5Li6relta-b_0hQ9GDX-34" vertex="1" connectable="0">
          <mxGeometry x="-0.0866" relative="1" as="geometry">
            <mxPoint x="1" y="-10" as="offset" />
          </mxGeometry>
        </mxCell>
        <mxCell id="J5Li6relta-b_0hQ9GDX-36" value="8" style="ellipse;whiteSpace=wrap;html=1;aspect=fixed;fontSize=17;" parent="1" vertex="1">
          <mxGeometry x="660" y="-280" width="40" height="40" as="geometry" />
        </mxCell>
        <mxCell id="J5Li6relta-b_0hQ9GDX-37" value="" style="curved=1;endArrow=classic;html=1;rounded=0;entryX=0;entryY=0.5;entryDx=0;entryDy=0;exitX=1;exitY=0.5;exitDx=0;exitDy=0;fontSize=17;" parent="1" source="J5Li6relta-b_0hQ9GDX-33" target="J5Li6relta-b_0hQ9GDX-36" edge="1">
          <mxGeometry width="50" height="50" relative="1" as="geometry">
            <mxPoint x="600" y="-240" as="sourcePoint" />
            <mxPoint x="590" y="-220" as="targetPoint" />
            <Array as="points" />
          </mxGeometry>
        </mxCell>
        <mxCell id="J5Li6relta-b_0hQ9GDX-38" value="m" style="edgeLabel;html=1;align=center;verticalAlign=middle;resizable=0;points=[];fontSize=17;" parent="J5Li6relta-b_0hQ9GDX-37" vertex="1" connectable="0">
          <mxGeometry x="-0.1074" y="-1" relative="1" as="geometry">
            <mxPoint y="-11" as="offset" />
          </mxGeometry>
        </mxCell>
        <mxCell id="J5Li6relta-b_0hQ9GDX-40" value="" style="curved=1;endArrow=classic;html=1;rounded=0;fontSize=17;" parent="1" source="J5Li6relta-b_0hQ9GDX-36" target="J5Li6relta-b_0hQ9GDX-42" edge="1">
          <mxGeometry width="50" height="50" relative="1" as="geometry">
            <mxPoint x="700" y="-260" as="sourcePoint" />
            <mxPoint x="780.0000000000002" y="-260" as="targetPoint" />
            <Array as="points" />
          </mxGeometry>
        </mxCell>
        <mxCell id="J5Li6relta-b_0hQ9GDX-41" value="e" style="edgeLabel;html=1;align=center;verticalAlign=middle;resizable=0;points=[];fontSize=17;" parent="J5Li6relta-b_0hQ9GDX-40" vertex="1" connectable="0">
          <mxGeometry x="-0.1074" y="-1" relative="1" as="geometry">
            <mxPoint y="-11" as="offset" />
          </mxGeometry>
        </mxCell>
        <mxCell id="J5Li6relta-b_0hQ9GDX-42" value="9" style="ellipse;shape=doubleEllipse;whiteSpace=wrap;html=1;aspect=fixed;fontStyle=1;fontSize=17;" parent="1" vertex="1">
          <mxGeometry x="780" y="-280" width="40" height="40" as="geometry" />
        </mxCell>
        <mxCell id="J5Li6relta-b_0hQ9GDX-45" value="10" style="ellipse;whiteSpace=wrap;html=1;aspect=fixed;fontSize=17;" parent="1" vertex="1">
          <mxGeometry x="-180" y="-200" width="40" height="40" as="geometry" />
        </mxCell>
        <mxCell id="J5Li6relta-b_0hQ9GDX-46" value="" style="curved=1;endArrow=classic;html=1;rounded=0;fontSize=17;" parent="1" source="J5Li6relta-b_0hQ9GDX-1" target="J5Li6relta-b_0hQ9GDX-45" edge="1">
          <mxGeometry width="50" height="50" relative="1" as="geometry">
            <mxPoint x="-260" y="-100" as="sourcePoint" />
            <mxPoint x="-280" y="-60" as="targetPoint" />
            <Array as="points" />
          </mxGeometry>
        </mxCell>
        <mxCell id="J5Li6relta-b_0hQ9GDX-47" value="c" style="edgeLabel;html=1;align=center;verticalAlign=middle;resizable=0;points=[];fontSize=17;" parent="J5Li6relta-b_0hQ9GDX-46" vertex="1" connectable="0">
          <mxGeometry x="-0.0866" relative="1" as="geometry">
            <mxPoint y="-10" as="offset" />
          </mxGeometry>
        </mxCell>
        <mxCell id="J5Li6relta-b_0hQ9GDX-48" value="11" style="ellipse;whiteSpace=wrap;html=1;aspect=fixed;fontSize=17;" parent="1" vertex="1">
          <mxGeometry x="-60" y="-200" width="40" height="40" as="geometry" />
        </mxCell>
        <mxCell id="J5Li6relta-b_0hQ9GDX-49" value="" style="curved=1;endArrow=classic;html=1;rounded=0;entryX=0;entryY=0.5;entryDx=0;entryDy=0;exitX=1;exitY=0.5;exitDx=0;exitDy=0;fontSize=17;" parent="1" source="J5Li6relta-b_0hQ9GDX-45" target="J5Li6relta-b_0hQ9GDX-48" edge="1">
          <mxGeometry width="50" height="50" relative="1" as="geometry">
            <mxPoint x="-120" y="-160" as="sourcePoint" />
            <mxPoint x="-130" y="-140" as="targetPoint" />
            <Array as="points" />
          </mxGeometry>
        </mxCell>
        <mxCell id="J5Li6relta-b_0hQ9GDX-50" value="o" style="edgeLabel;html=1;align=center;verticalAlign=middle;resizable=0;points=[];fontSize=17;" parent="J5Li6relta-b_0hQ9GDX-49" vertex="1" connectable="0">
          <mxGeometry x="-0.1074" y="-1" relative="1" as="geometry">
            <mxPoint y="-11" as="offset" />
          </mxGeometry>
        </mxCell>
        <mxCell id="J5Li6relta-b_0hQ9GDX-51" value="12" style="ellipse;whiteSpace=wrap;html=1;aspect=fixed;fontSize=17;" parent="1" vertex="1">
          <mxGeometry x="60" y="-200" width="40" height="40" as="geometry" />
        </mxCell>
        <mxCell id="J5Li6relta-b_0hQ9GDX-52" value="" style="curved=1;endArrow=classic;html=1;rounded=0;entryX=0;entryY=0.5;entryDx=0;entryDy=0;exitX=1;exitY=0.5;exitDx=0;exitDy=0;fontSize=17;" parent="1" target="J5Li6relta-b_0hQ9GDX-51" edge="1">
          <mxGeometry width="50" height="50" relative="1" as="geometry">
            <mxPoint x="-20" y="-180" as="sourcePoint" />
            <mxPoint x="-40" y="-140" as="targetPoint" />
            <Array as="points" />
          </mxGeometry>
        </mxCell>
        <mxCell id="J5Li6relta-b_0hQ9GDX-53" value="n" style="edgeLabel;html=1;align=center;verticalAlign=middle;resizable=0;points=[];fontSize=17;" parent="J5Li6relta-b_0hQ9GDX-52" vertex="1" connectable="0">
          <mxGeometry x="-0.0866" relative="1" as="geometry">
            <mxPoint x="1" y="-10" as="offset" />
          </mxGeometry>
        </mxCell>
        <mxCell id="J5Li6relta-b_0hQ9GDX-54" value="13" style="ellipse;whiteSpace=wrap;html=1;aspect=fixed;fontSize=17;" parent="1" vertex="1">
          <mxGeometry x="180" y="-200" width="40" height="40" as="geometry" />
        </mxCell>
        <mxCell id="J5Li6relta-b_0hQ9GDX-55" value="" style="curved=1;endArrow=classic;html=1;rounded=0;entryX=0;entryY=0.5;entryDx=0;entryDy=0;exitX=1;exitY=0.5;exitDx=0;exitDy=0;fontSize=17;" parent="1" source="J5Li6relta-b_0hQ9GDX-51" target="J5Li6relta-b_0hQ9GDX-54" edge="1">
          <mxGeometry width="50" height="50" relative="1" as="geometry">
            <mxPoint x="120" y="-160" as="sourcePoint" />
            <mxPoint x="110" y="-140" as="targetPoint" />
            <Array as="points" />
          </mxGeometry>
        </mxCell>
        <mxCell id="J5Li6relta-b_0hQ9GDX-56" value="s" style="edgeLabel;html=1;align=center;verticalAlign=middle;resizable=0;points=[];fontSize=17;" parent="J5Li6relta-b_0hQ9GDX-55" vertex="1" connectable="0">
          <mxGeometry x="-0.1074" y="-1" relative="1" as="geometry">
            <mxPoint y="-11" as="offset" />
          </mxGeometry>
        </mxCell>
        <mxCell id="J5Li6relta-b_0hQ9GDX-57" value="14" style="ellipse;whiteSpace=wrap;html=1;aspect=fixed;fontSize=17;" parent="1" vertex="1">
          <mxGeometry x="300" y="-200" width="40" height="40" as="geometry" />
        </mxCell>
        <mxCell id="J5Li6relta-b_0hQ9GDX-58" value="" style="curved=1;endArrow=classic;html=1;rounded=0;entryX=0;entryY=0.5;entryDx=0;entryDy=0;fontSize=17;" parent="1" source="J5Li6relta-b_0hQ9GDX-54" target="J5Li6relta-b_0hQ9GDX-57" edge="1">
          <mxGeometry width="50" height="50" relative="1" as="geometry">
            <mxPoint x="220" y="-180" as="sourcePoint" />
            <mxPoint x="200" y="-140" as="targetPoint" />
            <Array as="points" />
          </mxGeometry>
        </mxCell>
        <mxCell id="J5Li6relta-b_0hQ9GDX-59" value="t" style="edgeLabel;html=1;align=center;verticalAlign=middle;resizable=0;points=[];fontSize=17;" parent="J5Li6relta-b_0hQ9GDX-58" vertex="1" connectable="0">
          <mxGeometry x="-0.0866" relative="1" as="geometry">
            <mxPoint y="-10" as="offset" />
          </mxGeometry>
        </mxCell>
        <mxCell id="J5Li6relta-b_0hQ9GDX-60" value="15" style="ellipse;whiteSpace=wrap;html=1;aspect=fixed;fontSize=17;" parent="1" vertex="1">
          <mxGeometry x="420" y="-200" width="40" height="40" as="geometry" />
        </mxCell>
        <mxCell id="J5Li6relta-b_0hQ9GDX-61" value="" style="curved=1;endArrow=classic;html=1;rounded=0;entryX=0;entryY=0.5;entryDx=0;entryDy=0;exitX=1;exitY=0.5;exitDx=0;exitDy=0;fontSize=17;" parent="1" source="J5Li6relta-b_0hQ9GDX-57" target="J5Li6relta-b_0hQ9GDX-60" edge="1">
          <mxGeometry width="50" height="50" relative="1" as="geometry">
            <mxPoint x="360" y="-160" as="sourcePoint" />
            <mxPoint x="350" y="-140" as="targetPoint" />
            <Array as="points" />
          </mxGeometry>
        </mxCell>
        <mxCell id="J5Li6relta-b_0hQ9GDX-62" value="a" style="edgeLabel;html=1;align=center;verticalAlign=middle;resizable=0;points=[];fontSize=17;" parent="J5Li6relta-b_0hQ9GDX-61" vertex="1" connectable="0">
          <mxGeometry x="-0.1074" y="-1" relative="1" as="geometry">
            <mxPoint y="-11" as="offset" />
          </mxGeometry>
        </mxCell>
        <mxCell id="J5Li6relta-b_0hQ9GDX-63" value="16" style="ellipse;whiteSpace=wrap;html=1;aspect=fixed;fontSize=17;" parent="1" vertex="1">
          <mxGeometry x="540" y="-200" width="40" height="40" as="geometry" />
        </mxCell>
        <mxCell id="J5Li6relta-b_0hQ9GDX-64" value="" style="curved=1;endArrow=classic;html=1;rounded=0;entryX=0;entryY=0.5;entryDx=0;entryDy=0;exitX=1;exitY=0.5;exitDx=0;exitDy=0;fontSize=17;" parent="1" target="J5Li6relta-b_0hQ9GDX-63" edge="1">
          <mxGeometry width="50" height="50" relative="1" as="geometry">
            <mxPoint x="460" y="-180" as="sourcePoint" />
            <mxPoint x="440" y="-140" as="targetPoint" />
            <Array as="points" />
          </mxGeometry>
        </mxCell>
        <mxCell id="J5Li6relta-b_0hQ9GDX-65" value="n" style="edgeLabel;html=1;align=center;verticalAlign=middle;resizable=0;points=[];fontSize=17;" parent="J5Li6relta-b_0hQ9GDX-64" vertex="1" connectable="0">
          <mxGeometry x="-0.0866" relative="1" as="geometry">
            <mxPoint x="1" y="-10" as="offset" />
          </mxGeometry>
        </mxCell>
        <mxCell id="J5Li6relta-b_0hQ9GDX-66" value="17" style="ellipse;whiteSpace=wrap;html=1;aspect=fixed;fontSize=17;" parent="1" vertex="1">
          <mxGeometry x="660" y="-200" width="40" height="40" as="geometry" />
        </mxCell>
        <mxCell id="J5Li6relta-b_0hQ9GDX-67" value="" style="curved=1;endArrow=classic;html=1;rounded=0;entryX=0;entryY=0.5;entryDx=0;entryDy=0;exitX=1;exitY=0.5;exitDx=0;exitDy=0;fontSize=17;" parent="1" source="J5Li6relta-b_0hQ9GDX-63" target="J5Li6relta-b_0hQ9GDX-66" edge="1">
          <mxGeometry width="50" height="50" relative="1" as="geometry">
            <mxPoint x="600" y="-160" as="sourcePoint" />
            <mxPoint x="590" y="-140" as="targetPoint" />
            <Array as="points" />
          </mxGeometry>
        </mxCell>
        <mxCell id="J5Li6relta-b_0hQ9GDX-68" value="t" style="edgeLabel;html=1;align=center;verticalAlign=middle;resizable=0;points=[];fontSize=17;" parent="J5Li6relta-b_0hQ9GDX-67" vertex="1" connectable="0">
          <mxGeometry x="-0.1074" y="-1" relative="1" as="geometry">
            <mxPoint y="-11" as="offset" />
          </mxGeometry>
        </mxCell>
        <mxCell id="J5Li6relta-b_0hQ9GDX-69" value="" style="curved=1;endArrow=classic;html=1;rounded=0;fontSize=17;" parent="1" source="J5Li6relta-b_0hQ9GDX-66" target="J5Li6relta-b_0hQ9GDX-71" edge="1">
          <mxGeometry width="50" height="50" relative="1" as="geometry">
            <mxPoint x="700" y="-180" as="sourcePoint" />
            <mxPoint x="780.0000000000002" y="-180" as="targetPoint" />
            <Array as="points" />
          </mxGeometry>
        </mxCell>
        <mxCell id="J5Li6relta-b_0hQ9GDX-70" value="e" style="edgeLabel;html=1;align=center;verticalAlign=middle;resizable=0;points=[];fontSize=17;" parent="J5Li6relta-b_0hQ9GDX-69" vertex="1" connectable="0">
          <mxGeometry x="-0.1074" y="-1" relative="1" as="geometry">
            <mxPoint y="-11" as="offset" />
          </mxGeometry>
        </mxCell>
        <mxCell id="J5Li6relta-b_0hQ9GDX-71" value="18" style="ellipse;shape=doubleEllipse;whiteSpace=wrap;html=1;aspect=fixed;fontStyle=1;fontSize=17;" parent="1" vertex="1">
          <mxGeometry x="780" y="-200" width="40" height="40" as="geometry" />
        </mxCell>
        <mxCell id="J5Li6relta-b_0hQ9GDX-72" value="27" style="ellipse;whiteSpace=wrap;html=1;aspect=fixed;fontSize=17;" parent="1" vertex="1">
          <mxGeometry x="-180" y="-40" width="40" height="40" as="geometry" />
        </mxCell>
        <mxCell id="J5Li6relta-b_0hQ9GDX-73" value="" style="curved=1;endArrow=classic;html=1;rounded=0;fontSize=17;" parent="1" source="J5Li6relta-b_0hQ9GDX-1" target="J5Li6relta-b_0hQ9GDX-72" edge="1">
          <mxGeometry width="50" height="50" relative="1" as="geometry">
            <mxPoint x="-260" y="-20" as="sourcePoint" />
            <mxPoint x="-280" y="20" as="targetPoint" />
            <Array as="points" />
          </mxGeometry>
        </mxCell>
        <mxCell id="J5Li6relta-b_0hQ9GDX-74" value="v" style="edgeLabel;html=1;align=center;verticalAlign=middle;resizable=0;points=[];fontSize=17;" parent="J5Li6relta-b_0hQ9GDX-73" vertex="1" connectable="0">
          <mxGeometry x="-0.0866" relative="1" as="geometry">
            <mxPoint x="34" y="36" as="offset" />
          </mxGeometry>
        </mxCell>
        <mxCell id="J5Li6relta-b_0hQ9GDX-75" value="28" style="ellipse;whiteSpace=wrap;html=1;aspect=fixed;fontSize=17;" parent="1" vertex="1">
          <mxGeometry x="-60" y="-40" width="40" height="40" as="geometry" />
        </mxCell>
        <mxCell id="J5Li6relta-b_0hQ9GDX-76" value="" style="curved=1;endArrow=classic;html=1;rounded=0;entryX=0;entryY=0.5;entryDx=0;entryDy=0;exitX=1;exitY=0.5;exitDx=0;exitDy=0;fontSize=17;" parent="1" source="J5Li6relta-b_0hQ9GDX-72" target="J5Li6relta-b_0hQ9GDX-75" edge="1">
          <mxGeometry width="50" height="50" relative="1" as="geometry">
            <mxPoint x="-120" as="sourcePoint" />
            <mxPoint x="-130" y="20" as="targetPoint" />
            <Array as="points" />
          </mxGeometry>
        </mxCell>
        <mxCell id="J5Li6relta-b_0hQ9GDX-77" value="a" style="edgeLabel;html=1;align=center;verticalAlign=middle;resizable=0;points=[];fontSize=17;" parent="J5Li6relta-b_0hQ9GDX-76" vertex="1" connectable="0">
          <mxGeometry x="-0.1074" y="-1" relative="1" as="geometry">
            <mxPoint y="-11" as="offset" />
          </mxGeometry>
        </mxCell>
        <mxCell id="J5Li6relta-b_0hQ9GDX-78" value="29" style="ellipse;whiteSpace=wrap;html=1;aspect=fixed;fontSize=17;" parent="1" vertex="1">
          <mxGeometry x="60" y="-40" width="40" height="40" as="geometry" />
        </mxCell>
        <mxCell id="J5Li6relta-b_0hQ9GDX-79" value="" style="curved=1;endArrow=classic;html=1;rounded=0;entryX=0;entryY=0.5;entryDx=0;entryDy=0;exitX=1;exitY=0.5;exitDx=0;exitDy=0;fontSize=17;" parent="1" target="J5Li6relta-b_0hQ9GDX-78" edge="1">
          <mxGeometry width="50" height="50" relative="1" as="geometry">
            <mxPoint x="-20" y="-20" as="sourcePoint" />
            <mxPoint x="-40" y="20" as="targetPoint" />
            <Array as="points" />
          </mxGeometry>
        </mxCell>
        <mxCell id="J5Li6relta-b_0hQ9GDX-80" value="r" style="edgeLabel;html=1;align=center;verticalAlign=middle;resizable=0;points=[];fontSize=17;" parent="J5Li6relta-b_0hQ9GDX-79" vertex="1" connectable="0">
          <mxGeometry x="-0.0866" relative="1" as="geometry">
            <mxPoint x="1" y="-10" as="offset" />
          </mxGeometry>
        </mxCell>
        <mxCell id="J5Li6relta-b_0hQ9GDX-81" value="30" style="ellipse;whiteSpace=wrap;html=1;aspect=fixed;fontSize=17;" parent="1" vertex="1">
          <mxGeometry x="180" y="-40" width="40" height="40" as="geometry" />
        </mxCell>
        <mxCell id="J5Li6relta-b_0hQ9GDX-82" value="" style="curved=1;endArrow=classic;html=1;rounded=0;entryX=0;entryY=0.5;entryDx=0;entryDy=0;exitX=1;exitY=0.5;exitDx=0;exitDy=0;fontSize=17;" parent="1" source="J5Li6relta-b_0hQ9GDX-78" target="J5Li6relta-b_0hQ9GDX-81" edge="1">
          <mxGeometry width="50" height="50" relative="1" as="geometry">
            <mxPoint x="120" as="sourcePoint" />
            <mxPoint x="110" y="20" as="targetPoint" />
            <Array as="points" />
          </mxGeometry>
        </mxCell>
        <mxCell id="J5Li6relta-b_0hQ9GDX-83" value="i" style="edgeLabel;html=1;align=center;verticalAlign=middle;resizable=0;points=[];fontSize=17;" parent="J5Li6relta-b_0hQ9GDX-82" vertex="1" connectable="0">
          <mxGeometry x="-0.1074" y="-1" relative="1" as="geometry">
            <mxPoint y="-11" as="offset" />
          </mxGeometry>
        </mxCell>
        <mxCell id="J5Li6relta-b_0hQ9GDX-84" value="31" style="ellipse;whiteSpace=wrap;html=1;aspect=fixed;fontSize=17;" parent="1" vertex="1">
          <mxGeometry x="300" y="-40" width="40" height="40" as="geometry" />
        </mxCell>
        <mxCell id="J5Li6relta-b_0hQ9GDX-85" value="" style="curved=1;endArrow=classic;html=1;rounded=0;entryX=0;entryY=0.5;entryDx=0;entryDy=0;fontSize=17;" parent="1" source="J5Li6relta-b_0hQ9GDX-81" target="J5Li6relta-b_0hQ9GDX-84" edge="1">
          <mxGeometry width="50" height="50" relative="1" as="geometry">
            <mxPoint x="220" y="-20" as="sourcePoint" />
            <mxPoint x="200" y="20" as="targetPoint" />
            <Array as="points" />
          </mxGeometry>
        </mxCell>
        <mxCell id="J5Li6relta-b_0hQ9GDX-86" value="a" style="edgeLabel;html=1;align=center;verticalAlign=middle;resizable=0;points=[];fontSize=17;" parent="J5Li6relta-b_0hQ9GDX-85" vertex="1" connectable="0">
          <mxGeometry x="-0.0866" relative="1" as="geometry">
            <mxPoint y="-10" as="offset" />
          </mxGeometry>
        </mxCell>
        <mxCell id="J5Li6relta-b_0hQ9GDX-87" value="32" style="ellipse;whiteSpace=wrap;html=1;aspect=fixed;fontSize=17;" parent="1" vertex="1">
          <mxGeometry x="420" y="-40" width="40" height="40" as="geometry" />
        </mxCell>
        <mxCell id="J5Li6relta-b_0hQ9GDX-88" value="" style="curved=1;endArrow=classic;html=1;rounded=0;entryX=0;entryY=0.5;entryDx=0;entryDy=0;exitX=1;exitY=0.5;exitDx=0;exitDy=0;fontSize=17;" parent="1" source="J5Li6relta-b_0hQ9GDX-84" target="J5Li6relta-b_0hQ9GDX-87" edge="1">
          <mxGeometry width="50" height="50" relative="1" as="geometry">
            <mxPoint x="360" as="sourcePoint" />
            <mxPoint x="350" y="20" as="targetPoint" />
            <Array as="points" />
          </mxGeometry>
        </mxCell>
        <mxCell id="J5Li6relta-b_0hQ9GDX-89" value="b" style="edgeLabel;html=1;align=center;verticalAlign=middle;resizable=0;points=[];fontSize=17;" parent="J5Li6relta-b_0hQ9GDX-88" vertex="1" connectable="0">
          <mxGeometry x="-0.1074" y="-1" relative="1" as="geometry">
            <mxPoint y="-11" as="offset" />
          </mxGeometry>
        </mxCell>
        <mxCell id="J5Li6relta-b_0hQ9GDX-90" value="33" style="ellipse;whiteSpace=wrap;html=1;aspect=fixed;fontSize=17;" parent="1" vertex="1">
          <mxGeometry x="540" y="-40" width="40" height="40" as="geometry" />
        </mxCell>
        <mxCell id="J5Li6relta-b_0hQ9GDX-91" value="" style="curved=1;endArrow=classic;html=1;rounded=0;entryX=0;entryY=0.5;entryDx=0;entryDy=0;exitX=1;exitY=0.5;exitDx=0;exitDy=0;fontSize=17;" parent="1" target="J5Li6relta-b_0hQ9GDX-90" edge="1">
          <mxGeometry width="50" height="50" relative="1" as="geometry">
            <mxPoint x="460" y="-20" as="sourcePoint" />
            <mxPoint x="440" y="20" as="targetPoint" />
            <Array as="points" />
          </mxGeometry>
        </mxCell>
        <mxCell id="J5Li6relta-b_0hQ9GDX-92" value="l" style="edgeLabel;html=1;align=center;verticalAlign=middle;resizable=0;points=[];fontSize=17;" parent="J5Li6relta-b_0hQ9GDX-91" vertex="1" connectable="0">
          <mxGeometry x="-0.0866" relative="1" as="geometry">
            <mxPoint x="1" y="-10" as="offset" />
          </mxGeometry>
        </mxCell>
        <mxCell id="J5Li6relta-b_0hQ9GDX-94" value="" style="curved=1;endArrow=classic;html=1;rounded=0;exitX=1;exitY=0.5;exitDx=0;exitDy=0;fontSize=17;" parent="1" source="J5Li6relta-b_0hQ9GDX-90" target="J5Li6relta-b_0hQ9GDX-98" edge="1">
          <mxGeometry width="50" height="50" relative="1" as="geometry">
            <mxPoint x="600" as="sourcePoint" />
            <mxPoint x="660" y="-20" as="targetPoint" />
            <Array as="points" />
          </mxGeometry>
        </mxCell>
        <mxCell id="J5Li6relta-b_0hQ9GDX-95" value="e" style="edgeLabel;html=1;align=center;verticalAlign=middle;resizable=0;points=[];fontSize=17;" parent="J5Li6relta-b_0hQ9GDX-94" vertex="1" connectable="0">
          <mxGeometry x="-0.1074" y="-1" relative="1" as="geometry">
            <mxPoint y="-11" as="offset" />
          </mxGeometry>
        </mxCell>
        <mxCell id="J5Li6relta-b_0hQ9GDX-98" value="34" style="ellipse;shape=doubleEllipse;whiteSpace=wrap;html=1;aspect=fixed;fontSize=17;fontStyle=1" parent="1" vertex="1">
          <mxGeometry x="660" y="-40" width="40" height="40" as="geometry" />
        </mxCell>
        <mxCell id="J5Li6relta-b_0hQ9GDX-99" value="35" style="ellipse;whiteSpace=wrap;html=1;aspect=fixed;fontSize=17;" parent="1" vertex="1">
          <mxGeometry x="-180" y="40" width="40" height="40" as="geometry" />
        </mxCell>
        <mxCell id="J5Li6relta-b_0hQ9GDX-100" value="" style="curved=1;endArrow=classic;html=1;rounded=0;fontSize=17;" parent="1" source="J5Li6relta-b_0hQ9GDX-1" target="J5Li6relta-b_0hQ9GDX-99" edge="1">
          <mxGeometry width="50" height="50" relative="1" as="geometry">
            <mxPoint x="-266" y="-6" as="sourcePoint" />
            <mxPoint x="-280" y="100" as="targetPoint" />
          </mxGeometry>
        </mxCell>
        <mxCell id="J5Li6relta-b_0hQ9GDX-101" value="d" style="edgeLabel;html=1;align=center;verticalAlign=middle;resizable=0;points=[];fontSize=17;" parent="J5Li6relta-b_0hQ9GDX-100" vertex="1" connectable="0">
          <mxGeometry x="-0.0866" relative="1" as="geometry">
            <mxPoint x="14" y="29" as="offset" />
          </mxGeometry>
        </mxCell>
        <mxCell id="J5Li6relta-b_0hQ9GDX-102" value="36" style="ellipse;whiteSpace=wrap;html=1;aspect=fixed;fontSize=17;" parent="1" vertex="1">
          <mxGeometry x="-60" y="40" width="40" height="40" as="geometry" />
        </mxCell>
        <mxCell id="J5Li6relta-b_0hQ9GDX-103" value="" style="curved=1;endArrow=classic;html=1;rounded=0;entryX=0;entryY=0.5;entryDx=0;entryDy=0;exitX=1;exitY=0.5;exitDx=0;exitDy=0;fontSize=17;" parent="1" source="J5Li6relta-b_0hQ9GDX-99" target="J5Li6relta-b_0hQ9GDX-102" edge="1">
          <mxGeometry width="50" height="50" relative="1" as="geometry">
            <mxPoint x="-120" y="80" as="sourcePoint" />
            <mxPoint x="-130" y="100" as="targetPoint" />
            <Array as="points" />
          </mxGeometry>
        </mxCell>
        <mxCell id="J5Li6relta-b_0hQ9GDX-104" value="e" style="edgeLabel;html=1;align=center;verticalAlign=middle;resizable=0;points=[];fontSize=17;" parent="J5Li6relta-b_0hQ9GDX-103" vertex="1" connectable="0">
          <mxGeometry x="-0.1074" y="-1" relative="1" as="geometry">
            <mxPoint y="-11" as="offset" />
          </mxGeometry>
        </mxCell>
        <mxCell id="J5Li6relta-b_0hQ9GDX-105" value="37" style="ellipse;whiteSpace=wrap;html=1;aspect=fixed;fontSize=17;" parent="1" vertex="1">
          <mxGeometry x="60" y="40" width="40" height="40" as="geometry" />
        </mxCell>
        <mxCell id="J5Li6relta-b_0hQ9GDX-106" value="" style="curved=1;endArrow=classic;html=1;rounded=0;entryX=0;entryY=0.5;entryDx=0;entryDy=0;exitX=1;exitY=0.5;exitDx=0;exitDy=0;fontSize=17;" parent="1" target="J5Li6relta-b_0hQ9GDX-105" edge="1">
          <mxGeometry width="50" height="50" relative="1" as="geometry">
            <mxPoint x="-20" y="60" as="sourcePoint" />
            <mxPoint x="-40" y="100" as="targetPoint" />
            <Array as="points" />
          </mxGeometry>
        </mxCell>
        <mxCell id="J5Li6relta-b_0hQ9GDX-107" value="b" style="edgeLabel;html=1;align=center;verticalAlign=middle;resizable=0;points=[];fontSize=17;" parent="J5Li6relta-b_0hQ9GDX-106" vertex="1" connectable="0">
          <mxGeometry x="-0.0866" relative="1" as="geometry">
            <mxPoint x="1" y="-10" as="offset" />
          </mxGeometry>
        </mxCell>
        <mxCell id="J5Li6relta-b_0hQ9GDX-108" value="38" style="ellipse;whiteSpace=wrap;html=1;aspect=fixed;fontSize=17;" parent="1" vertex="1">
          <mxGeometry x="180" y="40" width="40" height="40" as="geometry" />
        </mxCell>
        <mxCell id="J5Li6relta-b_0hQ9GDX-109" value="" style="curved=1;endArrow=classic;html=1;rounded=0;entryX=0;entryY=0.5;entryDx=0;entryDy=0;exitX=1;exitY=0.5;exitDx=0;exitDy=0;fontSize=17;" parent="1" source="J5Li6relta-b_0hQ9GDX-105" target="J5Li6relta-b_0hQ9GDX-108" edge="1">
          <mxGeometry width="50" height="50" relative="1" as="geometry">
            <mxPoint x="120" y="80" as="sourcePoint" />
            <mxPoint x="110" y="100" as="targetPoint" />
            <Array as="points" />
          </mxGeometry>
        </mxCell>
        <mxCell id="J5Li6relta-b_0hQ9GDX-110" value="u" style="edgeLabel;html=1;align=center;verticalAlign=middle;resizable=0;points=[];fontSize=17;" parent="J5Li6relta-b_0hQ9GDX-109" vertex="1" connectable="0">
          <mxGeometry x="-0.1074" y="-1" relative="1" as="geometry">
            <mxPoint y="-11" as="offset" />
          </mxGeometry>
        </mxCell>
        <mxCell id="J5Li6relta-b_0hQ9GDX-112" value="" style="curved=1;endArrow=classic;html=1;rounded=0;fontSize=17;" parent="1" source="J5Li6relta-b_0hQ9GDX-108" target="J5Li6relta-b_0hQ9GDX-125" edge="1">
          <mxGeometry width="50" height="50" relative="1" as="geometry">
            <mxPoint x="220" y="60" as="sourcePoint" />
            <mxPoint x="300" y="60" as="targetPoint" />
            <Array as="points" />
          </mxGeometry>
        </mxCell>
        <mxCell id="J5Li6relta-b_0hQ9GDX-113" value="t" style="edgeLabel;html=1;align=center;verticalAlign=middle;resizable=0;points=[];fontSize=17;" parent="J5Li6relta-b_0hQ9GDX-112" vertex="1" connectable="0">
          <mxGeometry x="-0.0866" relative="1" as="geometry">
            <mxPoint y="-10" as="offset" />
          </mxGeometry>
        </mxCell>
        <mxCell id="J5Li6relta-b_0hQ9GDX-125" value="39" style="ellipse;shape=doubleEllipse;whiteSpace=wrap;html=1;aspect=fixed;fontSize=17;fontStyle=1" parent="1" vertex="1">
          <mxGeometry x="300" y="40" width="40" height="40" as="geometry" />
        </mxCell>
        <mxCell id="J5Li6relta-b_0hQ9GDX-182" value="40" style="ellipse;whiteSpace=wrap;html=1;aspect=fixed;fontSize=17;" parent="1" vertex="1">
          <mxGeometry x="-180" y="200" width="40" height="40" as="geometry" />
        </mxCell>
        <mxCell id="J5Li6relta-b_0hQ9GDX-183" value="" style="curved=1;endArrow=classic;html=1;rounded=0;fontSize=17;" parent="1" source="J5Li6relta-b_0hQ9GDX-1" target="J5Li6relta-b_0hQ9GDX-182" edge="1">
          <mxGeometry width="50" height="50" relative="1" as="geometry">
            <mxPoint x="-258" y="140" as="sourcePoint" />
            <mxPoint x="-278" y="180" as="targetPoint" />
            <Array as="points" />
          </mxGeometry>
        </mxCell>
        <mxCell id="J5Li6relta-b_0hQ9GDX-184" value="f" style="edgeLabel;html=1;align=center;verticalAlign=middle;resizable=0;points=[];fontSize=17;" parent="J5Li6relta-b_0hQ9GDX-183" vertex="1" connectable="0">
          <mxGeometry x="-0.0866" relative="1" as="geometry">
            <mxPoint y="-10" as="offset" />
          </mxGeometry>
        </mxCell>
        <mxCell id="J5Li6relta-b_0hQ9GDX-185" value="41" style="ellipse;whiteSpace=wrap;html=1;aspect=fixed;fontSize=17;" parent="1" vertex="1">
          <mxGeometry x="-60" y="200" width="40" height="40" as="geometry" />
        </mxCell>
        <mxCell id="J5Li6relta-b_0hQ9GDX-186" value="" style="curved=1;endArrow=classic;html=1;rounded=0;entryX=0;entryY=0.5;entryDx=0;entryDy=0;exitX=1;exitY=0.5;exitDx=0;exitDy=0;fontSize=17;" parent="1" source="J5Li6relta-b_0hQ9GDX-182" target="J5Li6relta-b_0hQ9GDX-185" edge="1">
          <mxGeometry width="50" height="50" relative="1" as="geometry">
            <mxPoint x="-120" y="240" as="sourcePoint" />
            <mxPoint x="-130" y="260" as="targetPoint" />
            <Array as="points" />
          </mxGeometry>
        </mxCell>
        <mxCell id="J5Li6relta-b_0hQ9GDX-187" value="i" style="edgeLabel;html=1;align=center;verticalAlign=middle;resizable=0;points=[];fontSize=17;" parent="J5Li6relta-b_0hQ9GDX-186" vertex="1" connectable="0">
          <mxGeometry x="-0.1074" y="-1" relative="1" as="geometry">
            <mxPoint y="-11" as="offset" />
          </mxGeometry>
        </mxCell>
        <mxCell id="J5Li6relta-b_0hQ9GDX-189" value="" style="curved=1;endArrow=classic;html=1;rounded=0;exitX=1;exitY=0.5;exitDx=0;exitDy=0;fontSize=17;" parent="1" target="J5Li6relta-b_0hQ9GDX-208" edge="1">
          <mxGeometry width="50" height="50" relative="1" as="geometry">
            <mxPoint x="-20" y="220" as="sourcePoint" />
            <mxPoint x="60" y="220" as="targetPoint" />
            <Array as="points" />
          </mxGeometry>
        </mxCell>
        <mxCell id="J5Li6relta-b_0hQ9GDX-190" value="n" style="edgeLabel;html=1;align=center;verticalAlign=middle;resizable=0;points=[];fontSize=17;" parent="J5Li6relta-b_0hQ9GDX-189" vertex="1" connectable="0">
          <mxGeometry x="-0.0866" relative="1" as="geometry">
            <mxPoint x="1" y="-10" as="offset" />
          </mxGeometry>
        </mxCell>
        <mxCell id="J5Li6relta-b_0hQ9GDX-208" value="42" style="ellipse;shape=doubleEllipse;whiteSpace=wrap;html=1;aspect=fixed;fontStyle=1;fontSize=17;" parent="1" vertex="1">
          <mxGeometry x="58" y="200" width="40" height="40" as="geometry" />
        </mxCell>
        <mxCell id="J5Li6relta-b_0hQ9GDX-209" value="43" style="ellipse;whiteSpace=wrap;html=1;aspect=fixed;fontSize=17;" parent="1" vertex="1">
          <mxGeometry x="-180" y="280" width="40" height="40" as="geometry" />
        </mxCell>
        <mxCell id="J5Li6relta-b_0hQ9GDX-210" value="" style="curved=1;endArrow=classic;html=1;rounded=0;fontSize=17;" parent="1" source="J5Li6relta-b_0hQ9GDX-1" target="J5Li6relta-b_0hQ9GDX-209" edge="1">
          <mxGeometry width="50" height="50" relative="1" as="geometry">
            <mxPoint x="-262" y="152" as="sourcePoint" />
            <mxPoint x="-278" y="260" as="targetPoint" />
            <Array as="points">
              <mxPoint x="-240" y="80" />
            </Array>
          </mxGeometry>
        </mxCell>
        <mxCell id="J5Li6relta-b_0hQ9GDX-211" value="r" style="edgeLabel;html=1;align=center;verticalAlign=middle;resizable=0;points=[];fontSize=17;" parent="J5Li6relta-b_0hQ9GDX-210" vertex="1" connectable="0">
          <mxGeometry x="-0.0866" relative="1" as="geometry">
            <mxPoint y="-13" as="offset" />
          </mxGeometry>
        </mxCell>
        <mxCell id="J5Li6relta-b_0hQ9GDX-212" value="44" style="ellipse;whiteSpace=wrap;html=1;aspect=fixed;fontSize=17;" parent="1" vertex="1">
          <mxGeometry x="-60" y="280" width="40" height="40" as="geometry" />
        </mxCell>
        <mxCell id="J5Li6relta-b_0hQ9GDX-213" value="" style="curved=1;endArrow=classic;html=1;rounded=0;entryX=0;entryY=0.5;entryDx=0;entryDy=0;exitX=1;exitY=0.5;exitDx=0;exitDy=0;fontSize=17;" parent="1" source="J5Li6relta-b_0hQ9GDX-209" target="J5Li6relta-b_0hQ9GDX-212" edge="1">
          <mxGeometry width="50" height="50" relative="1" as="geometry">
            <mxPoint x="-120" y="320" as="sourcePoint" />
            <mxPoint x="-130" y="340" as="targetPoint" />
            <Array as="points" />
          </mxGeometry>
        </mxCell>
        <mxCell id="J5Li6relta-b_0hQ9GDX-214" value="é" style="edgeLabel;html=1;align=center;verticalAlign=middle;resizable=0;points=[];fontSize=17;" parent="J5Li6relta-b_0hQ9GDX-213" vertex="1" connectable="0">
          <mxGeometry x="-0.1074" y="-1" relative="1" as="geometry">
            <mxPoint y="-11" as="offset" />
          </mxGeometry>
        </mxCell>
        <mxCell id="J5Li6relta-b_0hQ9GDX-215" value="45" style="ellipse;whiteSpace=wrap;html=1;aspect=fixed;fontSize=17;" parent="1" vertex="1">
          <mxGeometry x="60" y="280" width="40" height="40" as="geometry" />
        </mxCell>
        <mxCell id="J5Li6relta-b_0hQ9GDX-216" value="" style="curved=1;endArrow=classic;html=1;rounded=0;entryX=0;entryY=0.5;entryDx=0;entryDy=0;exitX=1;exitY=0.5;exitDx=0;exitDy=0;fontSize=17;" parent="1" target="J5Li6relta-b_0hQ9GDX-215" edge="1">
          <mxGeometry width="50" height="50" relative="1" as="geometry">
            <mxPoint x="-20" y="300" as="sourcePoint" />
            <mxPoint x="-40" y="340" as="targetPoint" />
            <Array as="points" />
          </mxGeometry>
        </mxCell>
        <mxCell id="J5Li6relta-b_0hQ9GDX-217" value="p" style="edgeLabel;html=1;align=center;verticalAlign=middle;resizable=0;points=[];fontSize=17;" parent="J5Li6relta-b_0hQ9GDX-216" vertex="1" connectable="0">
          <mxGeometry x="-0.0866" relative="1" as="geometry">
            <mxPoint x="1" y="-10" as="offset" />
          </mxGeometry>
        </mxCell>
        <mxCell id="J5Li6relta-b_0hQ9GDX-218" value="46" style="ellipse;whiteSpace=wrap;html=1;aspect=fixed;fontSize=17;" parent="1" vertex="1">
          <mxGeometry x="180" y="280" width="40" height="40" as="geometry" />
        </mxCell>
        <mxCell id="J5Li6relta-b_0hQ9GDX-219" value="" style="curved=1;endArrow=classic;html=1;rounded=0;entryX=0;entryY=0.5;entryDx=0;entryDy=0;exitX=1;exitY=0.5;exitDx=0;exitDy=0;fontSize=17;" parent="1" source="J5Li6relta-b_0hQ9GDX-215" target="J5Li6relta-b_0hQ9GDX-218" edge="1">
          <mxGeometry width="50" height="50" relative="1" as="geometry">
            <mxPoint x="120" y="320" as="sourcePoint" />
            <mxPoint x="110" y="340" as="targetPoint" />
            <Array as="points" />
          </mxGeometry>
        </mxCell>
        <mxCell id="J5Li6relta-b_0hQ9GDX-220" value="é" style="edgeLabel;html=1;align=center;verticalAlign=middle;resizable=0;points=[];fontSize=17;" parent="J5Li6relta-b_0hQ9GDX-219" vertex="1" connectable="0">
          <mxGeometry x="-0.1074" y="-1" relative="1" as="geometry">
            <mxPoint y="-11" as="offset" />
          </mxGeometry>
        </mxCell>
        <mxCell id="J5Li6relta-b_0hQ9GDX-221" value="47" style="ellipse;whiteSpace=wrap;html=1;aspect=fixed;fontSize=17;" parent="1" vertex="1">
          <mxGeometry x="300" y="280" width="40" height="40" as="geometry" />
        </mxCell>
        <mxCell id="J5Li6relta-b_0hQ9GDX-222" value="" style="curved=1;endArrow=classic;html=1;rounded=0;entryX=0;entryY=0.5;entryDx=0;entryDy=0;fontSize=17;" parent="1" source="J5Li6relta-b_0hQ9GDX-218" target="J5Li6relta-b_0hQ9GDX-221" edge="1">
          <mxGeometry width="50" height="50" relative="1" as="geometry">
            <mxPoint x="220" y="300" as="sourcePoint" />
            <mxPoint x="200" y="340" as="targetPoint" />
            <Array as="points" />
          </mxGeometry>
        </mxCell>
        <mxCell id="J5Li6relta-b_0hQ9GDX-223" value="t" style="edgeLabel;html=1;align=center;verticalAlign=middle;resizable=0;points=[];fontSize=17;" parent="J5Li6relta-b_0hQ9GDX-222" vertex="1" connectable="0">
          <mxGeometry x="-0.0866" relative="1" as="geometry">
            <mxPoint y="-10" as="offset" />
          </mxGeometry>
        </mxCell>
        <mxCell id="J5Li6relta-b_0hQ9GDX-224" value="48" style="ellipse;whiteSpace=wrap;html=1;aspect=fixed;fontSize=17;" parent="1" vertex="1">
          <mxGeometry x="420" y="280" width="40" height="40" as="geometry" />
        </mxCell>
        <mxCell id="J5Li6relta-b_0hQ9GDX-225" value="" style="curved=1;endArrow=classic;html=1;rounded=0;entryX=0;entryY=0.5;entryDx=0;entryDy=0;exitX=1;exitY=0.5;exitDx=0;exitDy=0;fontSize=17;" parent="1" source="J5Li6relta-b_0hQ9GDX-221" target="J5Li6relta-b_0hQ9GDX-224" edge="1">
          <mxGeometry width="50" height="50" relative="1" as="geometry">
            <mxPoint x="360" y="320" as="sourcePoint" />
            <mxPoint x="350" y="340" as="targetPoint" />
            <Array as="points" />
          </mxGeometry>
        </mxCell>
        <mxCell id="J5Li6relta-b_0hQ9GDX-226" value="e" style="edgeLabel;html=1;align=center;verticalAlign=middle;resizable=0;points=[];fontSize=17;" parent="J5Li6relta-b_0hQ9GDX-225" vertex="1" connectable="0">
          <mxGeometry x="-0.1074" y="-1" relative="1" as="geometry">
            <mxPoint y="-11" as="offset" />
          </mxGeometry>
        </mxCell>
        <mxCell id="J5Li6relta-b_0hQ9GDX-228" value="" style="curved=1;endArrow=classic;html=1;rounded=0;exitX=1;exitY=0.5;exitDx=0;exitDy=0;fontSize=17;" parent="1" target="J5Li6relta-b_0hQ9GDX-235" edge="1">
          <mxGeometry width="50" height="50" relative="1" as="geometry">
            <mxPoint x="460" y="300" as="sourcePoint" />
            <mxPoint x="540" y="300" as="targetPoint" />
            <Array as="points" />
          </mxGeometry>
        </mxCell>
        <mxCell id="J5Li6relta-b_0hQ9GDX-229" value="r" style="edgeLabel;html=1;align=center;verticalAlign=middle;resizable=0;points=[];fontSize=17;" parent="J5Li6relta-b_0hQ9GDX-228" vertex="1" connectable="0">
          <mxGeometry x="-0.0866" relative="1" as="geometry">
            <mxPoint x="1" y="-10" as="offset" />
          </mxGeometry>
        </mxCell>
        <mxCell id="J5Li6relta-b_0hQ9GDX-235" value="49" style="ellipse;shape=doubleEllipse;whiteSpace=wrap;html=1;aspect=fixed;fontStyle=1;fontSize=17;" parent="1" vertex="1">
          <mxGeometry x="530" y="280" width="40" height="40" as="geometry" />
        </mxCell>
        <mxCell id="J5Li6relta-b_0hQ9GDX-236" value="52" style="ellipse;whiteSpace=wrap;html=1;aspect=fixed;fontSize=17;" parent="1" vertex="1">
          <mxGeometry x="-176" y="440" width="40" height="40" as="geometry" />
        </mxCell>
        <mxCell id="J5Li6relta-b_0hQ9GDX-237" value="" style="curved=1;endArrow=classic;html=1;rounded=0;fontSize=17;" parent="1" source="J5Li6relta-b_0hQ9GDX-1" target="J5Li6relta-b_0hQ9GDX-236" edge="1">
          <mxGeometry width="50" height="50" relative="1" as="geometry">
            <mxPoint x="-267" y="157" as="sourcePoint" />
            <mxPoint x="-278" y="340" as="targetPoint" />
            <Array as="points">
              <mxPoint x="-280" y="70" />
            </Array>
          </mxGeometry>
        </mxCell>
        <mxCell id="J5Li6relta-b_0hQ9GDX-238" value="j" style="edgeLabel;html=1;align=center;verticalAlign=middle;resizable=0;points=[];fontSize=17;" parent="J5Li6relta-b_0hQ9GDX-237" vertex="1" connectable="0">
          <mxGeometry x="-0.0866" relative="1" as="geometry">
            <mxPoint x="4" y="-61" as="offset" />
          </mxGeometry>
        </mxCell>
        <mxCell id="J5Li6relta-b_0hQ9GDX-239" value="53" style="ellipse;whiteSpace=wrap;html=1;aspect=fixed;fontSize=17;" parent="1" vertex="1">
          <mxGeometry x="-56" y="440" width="40" height="40" as="geometry" />
        </mxCell>
        <mxCell id="J5Li6relta-b_0hQ9GDX-240" value="" style="curved=1;endArrow=classic;html=1;rounded=0;entryX=0;entryY=0.5;entryDx=0;entryDy=0;exitX=1;exitY=0.5;exitDx=0;exitDy=0;fontSize=17;" parent="1" source="J5Li6relta-b_0hQ9GDX-236" target="J5Li6relta-b_0hQ9GDX-239" edge="1">
          <mxGeometry width="50" height="50" relative="1" as="geometry">
            <mxPoint x="-116" y="480" as="sourcePoint" />
            <mxPoint x="-126" y="500" as="targetPoint" />
            <Array as="points" />
          </mxGeometry>
        </mxCell>
        <mxCell id="J5Li6relta-b_0hQ9GDX-241" value="u" style="edgeLabel;html=1;align=center;verticalAlign=middle;resizable=0;points=[];fontSize=17;" parent="J5Li6relta-b_0hQ9GDX-240" vertex="1" connectable="0">
          <mxGeometry x="-0.1074" y="-1" relative="1" as="geometry">
            <mxPoint y="-11" as="offset" />
          </mxGeometry>
        </mxCell>
        <mxCell id="J5Li6relta-b_0hQ9GDX-242" value="54" style="ellipse;whiteSpace=wrap;html=1;aspect=fixed;fontSize=17;" parent="1" vertex="1">
          <mxGeometry x="64" y="440" width="40" height="40" as="geometry" />
        </mxCell>
        <mxCell id="J5Li6relta-b_0hQ9GDX-243" value="" style="curved=1;endArrow=classic;html=1;rounded=0;entryX=0;entryY=0.5;entryDx=0;entryDy=0;exitX=1;exitY=0.5;exitDx=0;exitDy=0;fontSize=17;" parent="1" target="J5Li6relta-b_0hQ9GDX-242" edge="1">
          <mxGeometry width="50" height="50" relative="1" as="geometry">
            <mxPoint x="-16" y="460" as="sourcePoint" />
            <mxPoint x="-36" y="500" as="targetPoint" />
            <Array as="points" />
          </mxGeometry>
        </mxCell>
        <mxCell id="J5Li6relta-b_0hQ9GDX-244" value="s" style="edgeLabel;html=1;align=center;verticalAlign=middle;resizable=0;points=[];fontSize=17;" parent="J5Li6relta-b_0hQ9GDX-243" vertex="1" connectable="0">
          <mxGeometry x="-0.0866" relative="1" as="geometry">
            <mxPoint x="1" y="-10" as="offset" />
          </mxGeometry>
        </mxCell>
        <mxCell id="J5Li6relta-b_0hQ9GDX-245" value="55" style="ellipse;whiteSpace=wrap;html=1;aspect=fixed;fontSize=17;" parent="1" vertex="1">
          <mxGeometry x="184" y="440" width="40" height="40" as="geometry" />
        </mxCell>
        <mxCell id="J5Li6relta-b_0hQ9GDX-246" value="" style="curved=1;endArrow=classic;html=1;rounded=0;entryX=0;entryY=0.5;entryDx=0;entryDy=0;exitX=1;exitY=0.5;exitDx=0;exitDy=0;fontSize=17;" parent="1" source="J5Li6relta-b_0hQ9GDX-242" target="J5Li6relta-b_0hQ9GDX-245" edge="1">
          <mxGeometry width="50" height="50" relative="1" as="geometry">
            <mxPoint x="124" y="480" as="sourcePoint" />
            <mxPoint x="114" y="500" as="targetPoint" />
            <Array as="points" />
          </mxGeometry>
        </mxCell>
        <mxCell id="J5Li6relta-b_0hQ9GDX-247" value="q" style="edgeLabel;html=1;align=center;verticalAlign=middle;resizable=0;points=[];fontSize=17;" parent="J5Li6relta-b_0hQ9GDX-246" vertex="1" connectable="0">
          <mxGeometry x="-0.1074" y="-1" relative="1" as="geometry">
            <mxPoint y="-11" as="offset" />
          </mxGeometry>
        </mxCell>
        <mxCell id="J5Li6relta-b_0hQ9GDX-248" value="56" style="ellipse;whiteSpace=wrap;html=1;aspect=fixed;fontSize=17;" parent="1" vertex="1">
          <mxGeometry x="304" y="440" width="40" height="40" as="geometry" />
        </mxCell>
        <mxCell id="J5Li6relta-b_0hQ9GDX-249" value="" style="curved=1;endArrow=classic;html=1;rounded=0;entryX=0;entryY=0.5;entryDx=0;entryDy=0;fontSize=17;" parent="1" source="J5Li6relta-b_0hQ9GDX-245" target="J5Li6relta-b_0hQ9GDX-248" edge="1">
          <mxGeometry width="50" height="50" relative="1" as="geometry">
            <mxPoint x="224" y="460" as="sourcePoint" />
            <mxPoint x="204" y="500" as="targetPoint" />
            <Array as="points" />
          </mxGeometry>
        </mxCell>
        <mxCell id="J5Li6relta-b_0hQ9GDX-250" value="u" style="edgeLabel;html=1;align=center;verticalAlign=middle;resizable=0;points=[];fontSize=17;" parent="J5Li6relta-b_0hQ9GDX-249" vertex="1" connectable="0">
          <mxGeometry x="-0.0866" relative="1" as="geometry">
            <mxPoint y="-10" as="offset" />
          </mxGeometry>
        </mxCell>
        <mxCell id="J5Li6relta-b_0hQ9GDX-251" value="57" style="ellipse;whiteSpace=wrap;html=1;aspect=fixed;fontSize=17;" parent="1" vertex="1">
          <mxGeometry x="424" y="440" width="40" height="40" as="geometry" />
        </mxCell>
        <mxCell id="J5Li6relta-b_0hQ9GDX-252" value="" style="curved=1;endArrow=classic;html=1;rounded=0;entryX=0;entryY=0.5;entryDx=0;entryDy=0;exitX=1;exitY=0.5;exitDx=0;exitDy=0;fontSize=17;" parent="1" source="J5Li6relta-b_0hQ9GDX-248" target="J5Li6relta-b_0hQ9GDX-251" edge="1">
          <mxGeometry width="50" height="50" relative="1" as="geometry">
            <mxPoint x="364" y="480" as="sourcePoint" />
            <mxPoint x="354" y="500" as="targetPoint" />
            <Array as="points" />
          </mxGeometry>
        </mxCell>
        <mxCell id="J5Li6relta-b_0hQ9GDX-253" value="&#39;" style="edgeLabel;html=1;align=center;verticalAlign=middle;resizable=0;points=[];fontSize=17;" parent="J5Li6relta-b_0hQ9GDX-252" vertex="1" connectable="0">
          <mxGeometry x="-0.1074" y="-1" relative="1" as="geometry">
            <mxPoint y="-11" as="offset" />
          </mxGeometry>
        </mxCell>
        <mxCell id="J5Li6relta-b_0hQ9GDX-255" value="" style="curved=1;endArrow=classic;html=1;rounded=0;exitX=1;exitY=0.5;exitDx=0;exitDy=0;fontSize=17;" parent="1" target="J5Li6relta-b_0hQ9GDX-259" edge="1">
          <mxGeometry width="50" height="50" relative="1" as="geometry">
            <mxPoint x="464" y="460" as="sourcePoint" />
            <mxPoint x="544" y="460" as="targetPoint" />
            <Array as="points" />
          </mxGeometry>
        </mxCell>
        <mxCell id="J5Li6relta-b_0hQ9GDX-256" value="à" style="edgeLabel;html=1;align=center;verticalAlign=middle;resizable=0;points=[];fontSize=17;" parent="J5Li6relta-b_0hQ9GDX-255" vertex="1" connectable="0">
          <mxGeometry x="-0.0866" relative="1" as="geometry">
            <mxPoint x="-27" y="-20" as="offset" />
          </mxGeometry>
        </mxCell>
        <mxCell id="J5Li6relta-b_0hQ9GDX-259" value="58" style="ellipse;shape=doubleEllipse;whiteSpace=wrap;html=1;aspect=fixed;fontSize=17;fontStyle=1" parent="1" vertex="1">
          <mxGeometry x="544" y="440" width="40" height="40" as="geometry" />
        </mxCell>
        <mxCell id="J5Li6relta-b_0hQ9GDX-260" value="59" style="ellipse;whiteSpace=wrap;html=1;aspect=fixed;fontSize=17;" parent="1" vertex="1">
          <mxGeometry x="-180" y="520" width="40" height="40" as="geometry" />
        </mxCell>
        <mxCell id="J5Li6relta-b_0hQ9GDX-261" value="" style="curved=1;endArrow=classic;html=1;rounded=0;fontSize=17;" parent="1" source="J5Li6relta-b_0hQ9GDX-1" target="J5Li6relta-b_0hQ9GDX-260" edge="1">
          <mxGeometry width="50" height="50" relative="1" as="geometry">
            <mxPoint x="-270" y="158" as="sourcePoint" />
            <mxPoint x="-278" y="420" as="targetPoint" />
            <Array as="points">
              <mxPoint x="-330" y="120" />
            </Array>
          </mxGeometry>
        </mxCell>
        <mxCell id="J5Li6relta-b_0hQ9GDX-262" value="e" style="edgeLabel;html=1;align=center;verticalAlign=middle;resizable=0;points=[];fontSize=17;" parent="J5Li6relta-b_0hQ9GDX-261" vertex="1" connectable="0">
          <mxGeometry x="-0.0866" relative="1" as="geometry">
            <mxPoint x="24" y="-70" as="offset" />
          </mxGeometry>
        </mxCell>
        <mxCell id="J5Li6relta-b_0hQ9GDX-263" value="60" style="ellipse;whiteSpace=wrap;html=1;aspect=fixed;fontSize=17;" parent="1" vertex="1">
          <mxGeometry x="-60" y="520" width="40" height="40" as="geometry" />
        </mxCell>
        <mxCell id="J5Li6relta-b_0hQ9GDX-264" value="" style="curved=1;endArrow=classic;html=1;rounded=0;entryX=0;entryY=0.5;entryDx=0;entryDy=0;exitX=1;exitY=0.5;exitDx=0;exitDy=0;fontSize=17;" parent="1" source="J5Li6relta-b_0hQ9GDX-260" target="J5Li6relta-b_0hQ9GDX-263" edge="1">
          <mxGeometry width="50" height="50" relative="1" as="geometry">
            <mxPoint x="-120" y="560" as="sourcePoint" />
            <mxPoint x="-130" y="580" as="targetPoint" />
            <Array as="points" />
          </mxGeometry>
        </mxCell>
        <mxCell id="J5Li6relta-b_0hQ9GDX-265" value="n" style="edgeLabel;html=1;align=center;verticalAlign=middle;resizable=0;points=[];fontSize=17;" parent="J5Li6relta-b_0hQ9GDX-264" vertex="1" connectable="0">
          <mxGeometry x="-0.1074" y="-1" relative="1" as="geometry">
            <mxPoint y="-11" as="offset" />
          </mxGeometry>
        </mxCell>
        <mxCell id="J5Li6relta-b_0hQ9GDX-266" value="61" style="ellipse;whiteSpace=wrap;html=1;aspect=fixed;fontSize=17;" parent="1" vertex="1">
          <mxGeometry x="60" y="520" width="40" height="40" as="geometry" />
        </mxCell>
        <mxCell id="J5Li6relta-b_0hQ9GDX-267" value="" style="curved=1;endArrow=classic;html=1;rounded=0;entryX=0;entryY=0.5;entryDx=0;entryDy=0;exitX=1;exitY=0.5;exitDx=0;exitDy=0;fontSize=17;" parent="1" target="J5Li6relta-b_0hQ9GDX-266" edge="1">
          <mxGeometry width="50" height="50" relative="1" as="geometry">
            <mxPoint x="-20" y="540" as="sourcePoint" />
            <mxPoint x="-40" y="580" as="targetPoint" />
            <Array as="points" />
          </mxGeometry>
        </mxCell>
        <mxCell id="J5Li6relta-b_0hQ9GDX-268" value="t" style="edgeLabel;html=1;align=center;verticalAlign=middle;resizable=0;points=[];fontSize=17;" parent="J5Li6relta-b_0hQ9GDX-267" vertex="1" connectable="0">
          <mxGeometry x="-0.0866" relative="1" as="geometry">
            <mxPoint x="1" y="-10" as="offset" />
          </mxGeometry>
        </mxCell>
        <mxCell id="J5Li6relta-b_0hQ9GDX-269" value="62" style="ellipse;whiteSpace=wrap;html=1;aspect=fixed;fontSize=17;" parent="1" vertex="1">
          <mxGeometry x="180" y="520" width="40" height="40" as="geometry" />
        </mxCell>
        <mxCell id="J5Li6relta-b_0hQ9GDX-270" value="" style="curved=1;endArrow=classic;html=1;rounded=0;entryX=0;entryY=0.5;entryDx=0;entryDy=0;exitX=1;exitY=0.5;exitDx=0;exitDy=0;fontSize=17;" parent="1" source="J5Li6relta-b_0hQ9GDX-266" target="J5Li6relta-b_0hQ9GDX-269" edge="1">
          <mxGeometry width="50" height="50" relative="1" as="geometry">
            <mxPoint x="120" y="560" as="sourcePoint" />
            <mxPoint x="110" y="580" as="targetPoint" />
            <Array as="points" />
          </mxGeometry>
        </mxCell>
        <mxCell id="J5Li6relta-b_0hQ9GDX-271" value="i" style="edgeLabel;html=1;align=center;verticalAlign=middle;resizable=0;points=[];fontSize=17;" parent="J5Li6relta-b_0hQ9GDX-270" vertex="1" connectable="0">
          <mxGeometry x="-0.1074" y="-1" relative="1" as="geometry">
            <mxPoint y="-11" as="offset" />
          </mxGeometry>
        </mxCell>
        <mxCell id="J5Li6relta-b_0hQ9GDX-272" value="" style="curved=1;endArrow=classic;html=1;rounded=0;fontSize=17;" parent="1" source="J5Li6relta-b_0hQ9GDX-269" target="J5Li6relta-b_0hQ9GDX-277" edge="1">
          <mxGeometry width="50" height="50" relative="1" as="geometry">
            <mxPoint x="220" y="540" as="sourcePoint" />
            <mxPoint x="300" y="540" as="targetPoint" />
            <Array as="points" />
          </mxGeometry>
        </mxCell>
        <mxCell id="J5Li6relta-b_0hQ9GDX-273" value="e" style="edgeLabel;html=1;align=center;verticalAlign=middle;resizable=0;points=[];fontSize=17;" parent="J5Li6relta-b_0hQ9GDX-272" vertex="1" connectable="0">
          <mxGeometry x="-0.0866" relative="1" as="geometry">
            <mxPoint y="-10" as="offset" />
          </mxGeometry>
        </mxCell>
        <mxCell id="J5Li6relta-b_0hQ9GDX-277" value="63" style="ellipse;whiteSpace=wrap;html=1;aspect=fixed;fontSize=17;" parent="1" vertex="1">
          <mxGeometry x="300" y="520" width="40" height="40" as="geometry" />
        </mxCell>
        <mxCell id="J5Li6relta-b_0hQ9GDX-280" value="" style="curved=1;endArrow=classic;html=1;rounded=0;fontSize=17;" parent="1" source="J5Li6relta-b_0hQ9GDX-277" target="J5Li6relta-b_0hQ9GDX-282" edge="1">
          <mxGeometry width="50" height="50" relative="1" as="geometry">
            <mxPoint x="340" y="540" as="sourcePoint" />
            <mxPoint x="420" y="540" as="targetPoint" />
            <Array as="points" />
          </mxGeometry>
        </mxCell>
        <mxCell id="J5Li6relta-b_0hQ9GDX-281" value="r" style="edgeLabel;html=1;align=center;verticalAlign=middle;resizable=0;points=[];fontSize=17;" parent="J5Li6relta-b_0hQ9GDX-280" vertex="1" connectable="0">
          <mxGeometry x="-0.0866" relative="1" as="geometry">
            <mxPoint y="-10" as="offset" />
          </mxGeometry>
        </mxCell>
        <mxCell id="J5Li6relta-b_0hQ9GDX-282" value="64" style="ellipse;shape=doubleEllipse;whiteSpace=wrap;html=1;aspect=fixed;fontStyle=1;fontSize=17;" parent="1" vertex="1">
          <mxGeometry x="420" y="520" width="40" height="40" as="geometry" />
        </mxCell>
        <mxCell id="J5Li6relta-b_0hQ9GDX-364" value="66" style="ellipse;whiteSpace=wrap;html=1;aspect=fixed;fontSize=17;" parent="1" vertex="1">
          <mxGeometry x="-182" y="-360" width="40" height="40" as="geometry" />
        </mxCell>
        <mxCell id="J5Li6relta-b_0hQ9GDX-365" value="67" style="ellipse;whiteSpace=wrap;html=1;aspect=fixed;fontSize=17;" parent="1" vertex="1">
          <mxGeometry x="-62" y="-360" width="40" height="40" as="geometry" />
        </mxCell>
        <mxCell id="J5Li6relta-b_0hQ9GDX-366" value="" style="curved=1;endArrow=classic;html=1;rounded=0;entryX=0;entryY=0.5;entryDx=0;entryDy=0;exitX=1;exitY=0.5;exitDx=0;exitDy=0;fontSize=17;" parent="1" source="J5Li6relta-b_0hQ9GDX-364" target="J5Li6relta-b_0hQ9GDX-365" edge="1">
          <mxGeometry width="50" height="50" relative="1" as="geometry">
            <mxPoint x="-122" y="-320" as="sourcePoint" />
            <mxPoint x="-132" y="-300" as="targetPoint" />
            <Array as="points" />
          </mxGeometry>
        </mxCell>
        <mxCell id="J5Li6relta-b_0hQ9GDX-367" value="o" style="edgeLabel;html=1;align=center;verticalAlign=middle;resizable=0;points=[];fontSize=17;" parent="J5Li6relta-b_0hQ9GDX-366" vertex="1" connectable="0">
          <mxGeometry x="-0.1074" y="-1" relative="1" as="geometry">
            <mxPoint y="-11" as="offset" />
          </mxGeometry>
        </mxCell>
        <mxCell id="J5Li6relta-b_0hQ9GDX-368" value="" style="curved=1;endArrow=classic;html=1;rounded=0;exitX=1;exitY=0.5;exitDx=0;exitDy=0;fontSize=17;" parent="1" target="J5Li6relta-b_0hQ9GDX-370" edge="1">
          <mxGeometry width="50" height="50" relative="1" as="geometry">
            <mxPoint x="-22" y="-340" as="sourcePoint" />
            <mxPoint x="58" y="-340" as="targetPoint" />
            <Array as="points" />
          </mxGeometry>
        </mxCell>
        <mxCell id="J5Li6relta-b_0hQ9GDX-369" value="d" style="edgeLabel;html=1;align=center;verticalAlign=middle;resizable=0;points=[];fontSize=17;" parent="J5Li6relta-b_0hQ9GDX-368" vertex="1" connectable="0">
          <mxGeometry x="-0.0866" relative="1" as="geometry">
            <mxPoint x="1" y="-10" as="offset" />
          </mxGeometry>
        </mxCell>
        <mxCell id="J5Li6relta-b_0hQ9GDX-370" value="68" style="ellipse;shape=doubleEllipse;whiteSpace=wrap;html=1;aspect=fixed;fontStyle=1;fontSize=17;" parent="1" vertex="1">
          <mxGeometry x="56" y="-360" width="40" height="40" as="geometry" />
        </mxCell>
        <mxCell id="J5Li6relta-b_0hQ9GDX-373" value="19" style="ellipse;whiteSpace=wrap;html=1;aspect=fixed;fontSize=17;" parent="1" vertex="1">
          <mxGeometry x="-60" y="-120" width="40" height="40" as="geometry" />
        </mxCell>
        <mxCell id="J5Li6relta-b_0hQ9GDX-374" value="" style="curved=1;endArrow=classic;html=1;rounded=0;entryX=0;entryY=0.5;entryDx=0;entryDy=0;fontSize=17;" parent="1" source="J5Li6relta-b_0hQ9GDX-45" target="J5Li6relta-b_0hQ9GDX-373" edge="1">
          <mxGeometry width="50" height="50" relative="1" as="geometry">
            <mxPoint x="-18.000000000020464" y="-100.00000000000023" as="sourcePoint" />
            <mxPoint x="-4.670000000000016" y="-60" as="targetPoint" />
            <Array as="points">
              <mxPoint x="-140" y="-110" />
            </Array>
          </mxGeometry>
        </mxCell>
        <mxCell id="J5Li6relta-b_0hQ9GDX-375" value="a" style="edgeLabel;html=1;align=center;verticalAlign=middle;resizable=0;points=[];fontSize=17;" parent="J5Li6relta-b_0hQ9GDX-374" vertex="1" connectable="0">
          <mxGeometry x="-0.1074" y="-1" relative="1" as="geometry">
            <mxPoint y="-11" as="offset" />
          </mxGeometry>
        </mxCell>
        <mxCell id="J5Li6relta-b_0hQ9GDX-376" value="20" style="ellipse;whiteSpace=wrap;html=1;aspect=fixed;fontSize=17;" parent="1" vertex="1">
          <mxGeometry x="59.99999999999994" y="-120" width="40" height="40" as="geometry" />
        </mxCell>
        <mxCell id="J5Li6relta-b_0hQ9GDX-377" value="" style="curved=1;endArrow=classic;html=1;rounded=0;entryX=0;entryY=0.5;entryDx=0;entryDy=0;exitX=1;exitY=0.5;exitDx=0;exitDy=0;fontSize=17;" parent="1" target="J5Li6relta-b_0hQ9GDX-376" edge="1">
          <mxGeometry width="50" height="50" relative="1" as="geometry">
            <mxPoint x="-20.000000000000057" y="-100" as="sourcePoint" />
            <mxPoint x="-40" y="-60" as="targetPoint" />
            <Array as="points" />
          </mxGeometry>
        </mxCell>
        <mxCell id="J5Li6relta-b_0hQ9GDX-378" value="r" style="edgeLabel;html=1;align=center;verticalAlign=middle;resizable=0;points=[];fontSize=17;" parent="J5Li6relta-b_0hQ9GDX-377" vertex="1" connectable="0">
          <mxGeometry x="-0.0866" relative="1" as="geometry">
            <mxPoint x="1" y="-10" as="offset" />
          </mxGeometry>
        </mxCell>
        <mxCell id="J5Li6relta-b_0hQ9GDX-379" value="21" style="ellipse;whiteSpace=wrap;html=1;aspect=fixed;fontSize=17;" parent="1" vertex="1">
          <mxGeometry x="180" y="-120" width="40" height="40" as="geometry" />
        </mxCell>
        <mxCell id="J5Li6relta-b_0hQ9GDX-380" value="" style="curved=1;endArrow=classic;html=1;rounded=0;entryX=0;entryY=0.5;entryDx=0;entryDy=0;exitX=1;exitY=0.5;exitDx=0;exitDy=0;fontSize=17;" parent="1" source="J5Li6relta-b_0hQ9GDX-376" target="J5Li6relta-b_0hQ9GDX-379" edge="1">
          <mxGeometry width="50" height="50" relative="1" as="geometry">
            <mxPoint x="120" y="-80" as="sourcePoint" />
            <mxPoint x="110" y="-60" as="targetPoint" />
            <Array as="points" />
          </mxGeometry>
        </mxCell>
        <mxCell id="J5Li6relta-b_0hQ9GDX-381" value="a" style="edgeLabel;html=1;align=center;verticalAlign=middle;resizable=0;points=[];fontSize=17;" parent="J5Li6relta-b_0hQ9GDX-380" vertex="1" connectable="0">
          <mxGeometry x="-0.1074" y="-1" relative="1" as="geometry">
            <mxPoint y="-11" as="offset" />
          </mxGeometry>
        </mxCell>
        <mxCell id="J5Li6relta-b_0hQ9GDX-382" value="22" style="ellipse;whiteSpace=wrap;html=1;aspect=fixed;fontSize=17;" parent="1" vertex="1">
          <mxGeometry x="300" y="-120" width="40" height="40" as="geometry" />
        </mxCell>
        <mxCell id="J5Li6relta-b_0hQ9GDX-383" value="" style="curved=1;endArrow=classic;html=1;rounded=0;entryX=0;entryY=0.5;entryDx=0;entryDy=0;fontSize=17;" parent="1" source="J5Li6relta-b_0hQ9GDX-379" target="J5Li6relta-b_0hQ9GDX-382" edge="1">
          <mxGeometry width="50" height="50" relative="1" as="geometry">
            <mxPoint x="220" y="-100" as="sourcePoint" />
            <mxPoint x="200" y="-60" as="targetPoint" />
            <Array as="points" />
          </mxGeometry>
        </mxCell>
        <mxCell id="J5Li6relta-b_0hQ9GDX-384" value="c" style="edgeLabel;html=1;align=center;verticalAlign=middle;resizable=0;points=[];fontSize=17;" parent="J5Li6relta-b_0hQ9GDX-383" vertex="1" connectable="0">
          <mxGeometry x="-0.0866" relative="1" as="geometry">
            <mxPoint y="-10" as="offset" />
          </mxGeometry>
        </mxCell>
        <mxCell id="J5Li6relta-b_0hQ9GDX-385" value="23" style="ellipse;whiteSpace=wrap;html=1;aspect=fixed;fontSize=17;" parent="1" vertex="1">
          <mxGeometry x="420" y="-120" width="40" height="40" as="geometry" />
        </mxCell>
        <mxCell id="J5Li6relta-b_0hQ9GDX-386" value="" style="curved=1;endArrow=classic;html=1;rounded=0;entryX=0;entryY=0.5;entryDx=0;entryDy=0;exitX=1;exitY=0.5;exitDx=0;exitDy=0;fontSize=17;" parent="1" source="J5Li6relta-b_0hQ9GDX-382" target="J5Li6relta-b_0hQ9GDX-385" edge="1">
          <mxGeometry width="50" height="50" relative="1" as="geometry">
            <mxPoint x="360" y="-80" as="sourcePoint" />
            <mxPoint x="350" y="-60" as="targetPoint" />
            <Array as="points" />
          </mxGeometry>
        </mxCell>
        <mxCell id="J5Li6relta-b_0hQ9GDX-387" value="t" style="edgeLabel;html=1;align=center;verticalAlign=middle;resizable=0;points=[];fontSize=17;" parent="J5Li6relta-b_0hQ9GDX-386" vertex="1" connectable="0">
          <mxGeometry x="-0.1074" y="-1" relative="1" as="geometry">
            <mxPoint y="-11" as="offset" />
          </mxGeometry>
        </mxCell>
        <mxCell id="J5Li6relta-b_0hQ9GDX-388" value="24" style="ellipse;whiteSpace=wrap;html=1;aspect=fixed;fontSize=17;" parent="1" vertex="1">
          <mxGeometry x="539.9999999999999" y="-120" width="40" height="40" as="geometry" />
        </mxCell>
        <mxCell id="J5Li6relta-b_0hQ9GDX-389" value="" style="curved=1;endArrow=classic;html=1;rounded=0;entryX=0;entryY=0.5;entryDx=0;entryDy=0;exitX=1;exitY=0.5;exitDx=0;exitDy=0;fontSize=17;" parent="1" target="J5Li6relta-b_0hQ9GDX-388" edge="1">
          <mxGeometry width="50" height="50" relative="1" as="geometry">
            <mxPoint x="460" y="-100" as="sourcePoint" />
            <mxPoint x="440" y="-60" as="targetPoint" />
            <Array as="points" />
          </mxGeometry>
        </mxCell>
        <mxCell id="J5Li6relta-b_0hQ9GDX-390" value="è" style="edgeLabel;html=1;align=center;verticalAlign=middle;resizable=0;points=[];fontSize=17;" parent="J5Li6relta-b_0hQ9GDX-389" vertex="1" connectable="0">
          <mxGeometry x="-0.0866" relative="1" as="geometry">
            <mxPoint x="1" y="-10" as="offset" />
          </mxGeometry>
        </mxCell>
        <mxCell id="J5Li6relta-b_0hQ9GDX-391" value="25" style="ellipse;whiteSpace=wrap;html=1;aspect=fixed;fontSize=17;" parent="1" vertex="1">
          <mxGeometry x="660" y="-120" width="40" height="40" as="geometry" />
        </mxCell>
        <mxCell id="J5Li6relta-b_0hQ9GDX-392" value="" style="curved=1;endArrow=classic;html=1;rounded=0;entryX=0;entryY=0.5;entryDx=0;entryDy=0;exitX=1;exitY=0.5;exitDx=0;exitDy=0;fontSize=17;" parent="1" source="J5Li6relta-b_0hQ9GDX-388" target="J5Li6relta-b_0hQ9GDX-391" edge="1">
          <mxGeometry width="50" height="50" relative="1" as="geometry">
            <mxPoint x="599.9999999999999" y="-80" as="sourcePoint" />
            <mxPoint x="589.9999999999999" y="-60" as="targetPoint" />
            <Array as="points" />
          </mxGeometry>
        </mxCell>
        <mxCell id="J5Li6relta-b_0hQ9GDX-393" value="r" style="edgeLabel;html=1;align=center;verticalAlign=middle;resizable=0;points=[];fontSize=17;" parent="J5Li6relta-b_0hQ9GDX-392" vertex="1" connectable="0">
          <mxGeometry x="-0.1074" y="-1" relative="1" as="geometry">
            <mxPoint y="-11" as="offset" />
          </mxGeometry>
        </mxCell>
        <mxCell id="J5Li6relta-b_0hQ9GDX-394" value="" style="curved=1;endArrow=classic;html=1;rounded=0;fontSize=17;" parent="1" source="J5Li6relta-b_0hQ9GDX-391" target="J5Li6relta-b_0hQ9GDX-402" edge="1">
          <mxGeometry width="50" height="50" relative="1" as="geometry">
            <mxPoint x="700" y="-100" as="sourcePoint" />
            <mxPoint x="780" y="-100" as="targetPoint" />
            <Array as="points" />
          </mxGeometry>
        </mxCell>
        <mxCell id="J5Li6relta-b_0hQ9GDX-395" value="e" style="edgeLabel;html=1;align=center;verticalAlign=middle;resizable=0;points=[];fontSize=17;" parent="J5Li6relta-b_0hQ9GDX-394" vertex="1" connectable="0">
          <mxGeometry x="-0.1074" y="-1" relative="1" as="geometry">
            <mxPoint y="-11" as="offset" />
          </mxGeometry>
        </mxCell>
        <mxCell id="J5Li6relta-b_0hQ9GDX-402" value="26" style="ellipse;shape=doubleEllipse;whiteSpace=wrap;html=1;aspect=fixed;fontStyle=1;fontSize=17;" parent="1" vertex="1">
          <mxGeometry x="780.0000000000001" y="-120" width="40" height="40" as="geometry" />
        </mxCell>
        <mxCell id="J5Li6relta-b_0hQ9GDX-404" value="50" style="ellipse;whiteSpace=wrap;html=1;aspect=fixed;fontSize=17;" parent="1" vertex="1">
          <mxGeometry x="60" y="360" width="40" height="40" as="geometry" />
        </mxCell>
        <mxCell id="J5Li6relta-b_0hQ9GDX-405" value="" style="curved=1;endArrow=classic;html=1;rounded=0;entryX=0;entryY=0.5;entryDx=0;entryDy=0;fontSize=17;" parent="1" source="J5Li6relta-b_0hQ9GDX-212" target="J5Li6relta-b_0hQ9GDX-404" edge="1">
          <mxGeometry width="50" height="50" relative="1" as="geometry">
            <mxPoint x="-19.99999999997499" y="380" as="sourcePoint" />
            <mxPoint x="-10" y="420" as="targetPoint" />
            <Array as="points">
              <mxPoint x="-40" y="370" />
            </Array>
          </mxGeometry>
        </mxCell>
        <mxCell id="J5Li6relta-b_0hQ9GDX-406" value="e" style="edgeLabel;html=1;align=center;verticalAlign=middle;resizable=0;points=[];fontSize=17;" parent="J5Li6relta-b_0hQ9GDX-405" vertex="1" connectable="0">
          <mxGeometry x="-0.1074" y="-1" relative="1" as="geometry">
            <mxPoint y="-11" as="offset" />
          </mxGeometry>
        </mxCell>
        <mxCell id="J5Li6relta-b_0hQ9GDX-407" value="" style="curved=1;endArrow=classic;html=1;rounded=0;exitX=1;exitY=0.5;exitDx=0;exitDy=0;fontSize=17;" parent="1" target="J5Li6relta-b_0hQ9GDX-409" edge="1">
          <mxGeometry width="50" height="50" relative="1" as="geometry">
            <mxPoint x="100" y="380" as="sourcePoint" />
            <mxPoint x="180" y="380" as="targetPoint" />
            <Array as="points" />
          </mxGeometry>
        </mxCell>
        <mxCell id="J5Li6relta-b_0hQ9GDX-408" value="l" style="edgeLabel;html=1;align=center;verticalAlign=middle;resizable=0;points=[];fontSize=17;" parent="J5Li6relta-b_0hQ9GDX-407" vertex="1" connectable="0">
          <mxGeometry x="-0.0866" relative="1" as="geometry">
            <mxPoint x="1" y="-10" as="offset" />
          </mxGeometry>
        </mxCell>
        <mxCell id="J5Li6relta-b_0hQ9GDX-409" value="51" style="ellipse;shape=doubleEllipse;whiteSpace=wrap;html=1;aspect=fixed;fontStyle=1;fontSize=17;" parent="1" vertex="1">
          <mxGeometry x="178" y="360" width="40" height="40" as="geometry" />
        </mxCell>
        <mxCell id="J5Li6relta-b_0hQ9GDX-412" value="" style="curved=1;endArrow=classic;html=1;rounded=0;fontSize=17;" parent="1" source="J5Li6relta-b_0hQ9GDX-260" target="J5Li6relta-b_0hQ9GDX-414" edge="1">
          <mxGeometry width="50" height="50" relative="1" as="geometry">
            <mxPoint x="-158" y="610" as="sourcePoint" />
            <mxPoint x="-78" y="610" as="targetPoint" />
            <Array as="points">
              <mxPoint x="-128" y="610" />
            </Array>
          </mxGeometry>
        </mxCell>
        <mxCell id="J5Li6relta-b_0hQ9GDX-413" value="t" style="edgeLabel;html=1;align=center;verticalAlign=middle;resizable=0;points=[];fontSize=17;" parent="J5Li6relta-b_0hQ9GDX-412" vertex="1" connectable="0">
          <mxGeometry x="-0.0866" relative="1" as="geometry">
            <mxPoint y="-10" as="offset" />
          </mxGeometry>
        </mxCell>
        <mxCell id="J5Li6relta-b_0hQ9GDX-414" value="65" style="ellipse;shape=doubleEllipse;whiteSpace=wrap;html=1;aspect=fixed;fontStyle=1;fontSize=17;" parent="1" vertex="1">
          <mxGeometry x="-60" y="600" width="40" height="40" as="geometry" />
        </mxCell>
        <mxCell id="J5Li6relta-b_0hQ9GDX-415" value="m" style="curved=1;endArrow=classic;html=1;rounded=0;fontSize=17;" parent="1" source="J5Li6relta-b_0hQ9GDX-1" target="J5Li6relta-b_0hQ9GDX-364" edge="1">
          <mxGeometry x="0.5358" y="-7" width="50" height="50" relative="1" as="geometry">
            <mxPoint x="-290" y="-260.5" as="sourcePoint" />
            <mxPoint x="-210" y="-260.5" as="targetPoint" />
            <Array as="points" />
            <mxPoint as="offset" />
          </mxGeometry>
        </mxCell>
        <mxCell id="J5Li6relta-b_0hQ9GDX-425" value="72" style="ellipse;whiteSpace=wrap;html=1;aspect=fixed;fontSize=17;" parent="1" vertex="1">
          <mxGeometry x="-180" y="-440" width="40" height="40" as="geometry" />
        </mxCell>
        <mxCell id="J5Li6relta-b_0hQ9GDX-426" value="" style="curved=1;endArrow=classic;html=1;rounded=0;fontSize=17;" parent="1" source="J5Li6relta-b_0hQ9GDX-1" target="J5Li6relta-b_0hQ9GDX-425" edge="1">
          <mxGeometry width="50" height="50" relative="1" as="geometry">
            <mxPoint x="-260" y="-500" as="sourcePoint" />
            <mxPoint x="-250" y="-460" as="targetPoint" />
            <Array as="points" />
          </mxGeometry>
        </mxCell>
        <mxCell id="J5Li6relta-b_0hQ9GDX-427" value="o" style="edgeLabel;html=1;align=center;verticalAlign=middle;resizable=0;points=[];fontSize=17;" parent="J5Li6relta-b_0hQ9GDX-426" vertex="1" connectable="0">
          <mxGeometry x="-0.1074" y="-1" relative="1" as="geometry">
            <mxPoint x="30" y="-83" as="offset" />
          </mxGeometry>
        </mxCell>
        <mxCell id="J5Li6relta-b_0hQ9GDX-428" value="" style="curved=1;endArrow=classic;html=1;rounded=0;fontSize=17;" parent="1" source="J5Li6relta-b_0hQ9GDX-1" target="J5Li6relta-b_0hQ9GDX-430" edge="1">
          <mxGeometry width="50" height="50" relative="1" as="geometry">
            <mxPoint x="-327.28807928273045" y="-185.2886669001041" as="sourcePoint" />
            <mxPoint x="-578" y="-250" as="targetPoint" />
            <Array as="points" />
          </mxGeometry>
        </mxCell>
        <mxCell id="J5Li6relta-b_0hQ9GDX-517" value="&lt;font style=&quot;font-size: 17px;&quot;&gt;+&lt;/font&gt;" style="edgeLabel;html=1;align=center;verticalAlign=middle;resizable=0;points=[];" parent="J5Li6relta-b_0hQ9GDX-428" vertex="1" connectable="0">
          <mxGeometry x="0.5647" y="-1" relative="1" as="geometry">
            <mxPoint x="-1" y="-21" as="offset" />
          </mxGeometry>
        </mxCell>
        <mxCell id="J5Li6relta-b_0hQ9GDX-430" value="78" style="ellipse;shape=doubleEllipse;whiteSpace=wrap;html=1;aspect=fixed;fontStyle=1;fontSize=17;" parent="1" vertex="1">
          <mxGeometry x="-300" y="-520" width="40" height="40" as="geometry" />
        </mxCell>
        <mxCell id="J5Li6relta-b_0hQ9GDX-433" value="74" style="ellipse;whiteSpace=wrap;html=1;aspect=fixed;fontSize=17;" parent="1" vertex="1">
          <mxGeometry x="-460" y="80" width="40" height="40" as="geometry" />
        </mxCell>
        <mxCell id="J5Li6relta-b_0hQ9GDX-434" value="" style="curved=1;endArrow=classic;html=1;rounded=0;fontSize=17;" parent="1" source="J5Li6relta-b_0hQ9GDX-433" target="J5Li6relta-b_0hQ9GDX-436" edge="1">
          <mxGeometry width="50" height="50" relative="1" as="geometry">
            <mxPoint x="-310" y="352.54999999999995" as="sourcePoint" />
            <mxPoint x="-168" y="212.54999999999995" as="targetPoint" />
            <Array as="points" />
          </mxGeometry>
        </mxCell>
        <mxCell id="oN8_p2pEicUDrM2_iK7Q-1" value="0-9" style="edgeLabel;html=1;align=center;verticalAlign=middle;resizable=0;points=[];fontSize=17;" parent="J5Li6relta-b_0hQ9GDX-434" vertex="1" connectable="0">
          <mxGeometry x="-0.2273" relative="1" as="geometry">
            <mxPoint x="13" y="-26" as="offset" />
          </mxGeometry>
        </mxCell>
        <mxCell id="J5Li6relta-b_0hQ9GDX-436" value="75" style="ellipse;shape=doubleEllipse;whiteSpace=wrap;html=1;aspect=fixed;fontStyle=1;fontSize=17;" parent="1" vertex="1">
          <mxGeometry x="-540" y="240" width="40" height="40" as="geometry" />
        </mxCell>
        <mxCell id="J5Li6relta-b_0hQ9GDX-437" value="" style="curved=1;endArrow=classic;html=1;rounded=0;fontSize=17;" parent="1" source="J5Li6relta-b_0hQ9GDX-1" target="J5Li6relta-b_0hQ9GDX-433" edge="1">
          <mxGeometry width="50" height="50" relative="1" as="geometry">
            <mxPoint x="-348" y="-180.29000000000002" as="sourcePoint" />
            <mxPoint x="-520" y="-180.29000000000002" as="targetPoint" />
          </mxGeometry>
        </mxCell>
        <mxCell id="J5Li6relta-b_0hQ9GDX-438" value="lettre-{o,d,m,p,c,v,d,f,r,g,e}" style="edgeLabel;html=1;align=center;verticalAlign=middle;resizable=0;points=[];fontSize=17;rotation=-60;" parent="J5Li6relta-b_0hQ9GDX-437" vertex="1" connectable="0">
          <mxGeometry x="-0.0866" relative="1" as="geometry">
            <mxPoint x="1" y="-10" as="offset" />
          </mxGeometry>
        </mxCell>
        <mxCell id="J5Li6relta-b_0hQ9GDX-440" value="" style="curved=1;endArrow=classic;html=1;rounded=0;fontSize=17;" parent="1" source="J5Li6relta-b_0hQ9GDX-436" target="J5Li6relta-b_0hQ9GDX-443" edge="1">
          <mxGeometry width="50" height="50" relative="1" as="geometry">
            <mxPoint x="-600" y="362.54999999999995" as="sourcePoint" />
            <mxPoint x="-710" y="262.54999999999995" as="targetPoint" />
            <Array as="points">
              <mxPoint x="-580" y="320" />
            </Array>
          </mxGeometry>
        </mxCell>
        <mxCell id="J5Li6relta-b_0hQ9GDX-441" value="a-z" style="edgeLabel;html=1;align=center;verticalAlign=middle;resizable=0;points=[];fontSize=17;" parent="J5Li6relta-b_0hQ9GDX-440" vertex="1" connectable="0">
          <mxGeometry x="-0.0866" relative="1" as="geometry">
            <mxPoint x="1" y="-10" as="offset" />
          </mxGeometry>
        </mxCell>
        <mxCell id="J5Li6relta-b_0hQ9GDX-443" value="76" style="ellipse;whiteSpace=wrap;html=1;aspect=fixed;fontSize=17;" parent="1" vertex="1">
          <mxGeometry x="-660" y="240" width="40" height="40" as="geometry" />
        </mxCell>
        <mxCell id="J5Li6relta-b_0hQ9GDX-444" value="" style="curved=1;endArrow=classic;html=1;rounded=0;fontSize=17;" parent="1" source="J5Li6relta-b_0hQ9GDX-443" target="J5Li6relta-b_0hQ9GDX-436" edge="1">
          <mxGeometry width="50" height="50" relative="1" as="geometry">
            <mxPoint x="-743" y="-147" as="sourcePoint" />
            <mxPoint x="-620" y="200" as="targetPoint" />
            <Array as="points">
              <mxPoint x="-580" y="210" />
            </Array>
          </mxGeometry>
        </mxCell>
        <mxCell id="J5Li6relta-b_0hQ9GDX-445" value="0-9" style="edgeLabel;html=1;align=center;verticalAlign=middle;resizable=0;points=[];fontSize=17;" parent="J5Li6relta-b_0hQ9GDX-444" vertex="1" connectable="0">
          <mxGeometry x="-0.0866" relative="1" as="geometry">
            <mxPoint x="-14" y="26" as="offset" />
          </mxGeometry>
        </mxCell>
        <mxCell id="J5Li6relta-b_0hQ9GDX-447" value="" style="curved=1;endArrow=classic;html=1;rounded=0;fontSize=17;" parent="1" source="J5Li6relta-b_0hQ9GDX-425" target="J5Li6relta-b_0hQ9GDX-436" edge="1">
          <mxGeometry width="50" height="50" relative="1" as="geometry">
            <mxPoint x="-420" y="-500.62" as="sourcePoint" />
            <mxPoint x="-500" y="-500.62" as="targetPoint" />
            <Array as="points">
              <mxPoint x="-420" y="-420" />
            </Array>
          </mxGeometry>
        </mxCell>
        <mxCell id="J5Li6relta-b_0hQ9GDX-469" value="&lt;font&gt;0-9&lt;/font&gt;" style="edgeLabel;html=1;align=center;verticalAlign=middle;resizable=0;points=[];fontSize=17;" parent="J5Li6relta-b_0hQ9GDX-447" vertex="1" connectable="0">
          <mxGeometry x="-0.1869" y="73" relative="1" as="geometry">
            <mxPoint x="105" y="-125" as="offset" />
          </mxGeometry>
        </mxCell>
        <mxCell id="J5Li6relta-b_0hQ9GDX-451" value="" style="curved=1;endArrow=classic;html=1;rounded=0;fontSize=17;" parent="1" source="J5Li6relta-b_0hQ9GDX-364" target="J5Li6relta-b_0hQ9GDX-436" edge="1">
          <mxGeometry width="50" height="50" relative="1" as="geometry">
            <mxPoint x="-170" y="-401" as="sourcePoint" />
            <mxPoint x="-612" y="-179" as="targetPoint" />
            <Array as="points">
              <mxPoint x="-430" y="-330" />
            </Array>
          </mxGeometry>
        </mxCell>
        <mxCell id="J5Li6relta-b_0hQ9GDX-471" value="0-9" style="edgeLabel;html=1;align=center;verticalAlign=middle;resizable=0;points=[];fontSize=17;" parent="J5Li6relta-b_0hQ9GDX-451" vertex="1" connectable="0">
          <mxGeometry x="-0.7042" y="27" relative="1" as="geometry">
            <mxPoint x="46" y="-12" as="offset" />
          </mxGeometry>
        </mxCell>
        <mxCell id="J5Li6relta-b_0hQ9GDX-453" value="" style="curved=1;endArrow=classic;html=1;rounded=0;fontSize=17;" parent="1" source="J5Li6relta-b_0hQ9GDX-2" target="J5Li6relta-b_0hQ9GDX-436" edge="1">
          <mxGeometry width="50" height="50" relative="1" as="geometry">
            <mxPoint x="-171" y="-324" as="sourcePoint" />
            <mxPoint x="-611" y="-176" as="targetPoint" />
            <Array as="points">
              <mxPoint x="-420" y="-310" />
            </Array>
          </mxGeometry>
        </mxCell>
        <mxCell id="J5Li6relta-b_0hQ9GDX-472" value="0-9" style="edgeLabel;html=1;align=center;verticalAlign=middle;resizable=0;points=[];fontSize=17;" parent="J5Li6relta-b_0hQ9GDX-453" vertex="1" connectable="0">
          <mxGeometry x="-0.7173" y="33" relative="1" as="geometry">
            <mxPoint x="38" y="-7" as="offset" />
          </mxGeometry>
        </mxCell>
        <mxCell id="J5Li6relta-b_0hQ9GDX-455" value="" style="curved=1;endArrow=classic;html=1;rounded=0;fontSize=17;" parent="1" source="J5Li6relta-b_0hQ9GDX-45" target="J5Li6relta-b_0hQ9GDX-436" edge="1">
          <mxGeometry width="50" height="50" relative="1" as="geometry">
            <mxPoint x="-400" y="-110" as="sourcePoint" />
            <mxPoint x="-480" y="-110" as="targetPoint" />
            <Array as="points">
              <mxPoint x="-310" y="80" />
            </Array>
          </mxGeometry>
        </mxCell>
        <mxCell id="COhdz0LmtiyPBc3kbHAe-59" value="&lt;span style=&quot;font-size: 17px;&quot;&gt;0-9&lt;/span&gt;" style="edgeLabel;html=1;align=center;verticalAlign=middle;resizable=0;points=[];" parent="J5Li6relta-b_0hQ9GDX-455" vertex="1" connectable="0">
          <mxGeometry x="0.4913" y="-2" relative="1" as="geometry">
            <mxPoint x="-1" as="offset" />
          </mxGeometry>
        </mxCell>
        <mxCell id="J5Li6relta-b_0hQ9GDX-457" value="" style="curved=1;endArrow=classic;html=1;rounded=0;fontSize=17;" parent="1" source="J5Li6relta-b_0hQ9GDX-72" target="J5Li6relta-b_0hQ9GDX-436" edge="1">
          <mxGeometry width="50" height="50" relative="1" as="geometry">
            <mxPoint x="-440" y="-60" as="sourcePoint" />
            <mxPoint x="-520" y="-60" as="targetPoint" />
            <Array as="points">
              <mxPoint x="-290" y="170" />
            </Array>
          </mxGeometry>
        </mxCell>
        <mxCell id="COhdz0LmtiyPBc3kbHAe-60" value="&lt;span style=&quot;font-size: 17px;&quot;&gt;0-9&lt;/span&gt;" style="edgeLabel;html=1;align=center;verticalAlign=middle;resizable=0;points=[];" parent="J5Li6relta-b_0hQ9GDX-457" vertex="1" connectable="0">
          <mxGeometry x="0.3394" y="-1" relative="1" as="geometry">
            <mxPoint x="-13" y="-17" as="offset" />
          </mxGeometry>
        </mxCell>
        <mxCell id="J5Li6relta-b_0hQ9GDX-459" value="" style="curved=1;endArrow=classic;html=1;rounded=0;fontSize=17;" parent="1" source="J5Li6relta-b_0hQ9GDX-99" target="J5Li6relta-b_0hQ9GDX-436" edge="1">
          <mxGeometry width="50" height="50" relative="1" as="geometry">
            <mxPoint x="-169" y="-16" as="sourcePoint" />
            <mxPoint x="-611" y="-164" as="targetPoint" />
            <Array as="points">
              <mxPoint x="-290" y="230" />
            </Array>
          </mxGeometry>
        </mxCell>
        <mxCell id="COhdz0LmtiyPBc3kbHAe-61" value="&lt;span style=&quot;font-size: 17px;&quot;&gt;0-9&lt;/span&gt;" style="edgeLabel;html=1;align=center;verticalAlign=middle;resizable=0;points=[];" parent="J5Li6relta-b_0hQ9GDX-459" vertex="1" connectable="0">
          <mxGeometry x="0.2149" y="1" relative="1" as="geometry">
            <mxPoint x="-8" y="-18" as="offset" />
          </mxGeometry>
        </mxCell>
        <mxCell id="J5Li6relta-b_0hQ9GDX-461" value="" style="curved=1;endArrow=classic;html=1;rounded=0;fontSize=17;" parent="1" source="J5Li6relta-b_0hQ9GDX-182" target="J5Li6relta-b_0hQ9GDX-436" edge="1">
          <mxGeometry width="50" height="50" relative="1" as="geometry">
            <mxPoint x="-196" y="102" as="sourcePoint" />
            <mxPoint x="-640" y="-120" as="targetPoint" />
            <Array as="points">
              <mxPoint x="-250" y="280" />
            </Array>
          </mxGeometry>
        </mxCell>
        <mxCell id="COhdz0LmtiyPBc3kbHAe-55" value="&lt;span style=&quot;font-size: 17px;&quot;&gt;0-9&lt;/span&gt;" style="edgeLabel;html=1;align=center;verticalAlign=middle;resizable=0;points=[];" parent="J5Li6relta-b_0hQ9GDX-461" vertex="1" connectable="0">
          <mxGeometry x="0.0776" y="-1" relative="1" as="geometry">
            <mxPoint as="offset" />
          </mxGeometry>
        </mxCell>
        <mxCell id="J5Li6relta-b_0hQ9GDX-463" value="" style="curved=1;endArrow=classic;html=1;rounded=0;fontSize=17;" parent="1" source="J5Li6relta-b_0hQ9GDX-236" target="J5Li6relta-b_0hQ9GDX-436" edge="1">
          <mxGeometry width="50" height="50" relative="1" as="geometry">
            <mxPoint x="-436" y="192" as="sourcePoint" />
            <mxPoint x="-880" y="-30" as="targetPoint" />
            <Array as="points">
              <mxPoint x="-340" y="370" />
            </Array>
          </mxGeometry>
        </mxCell>
        <mxCell id="J5Li6relta-b_0hQ9GDX-464" value="0-9" style="edgeLabel;html=1;align=center;verticalAlign=middle;resizable=0;points=[];fontSize=17;" parent="J5Li6relta-b_0hQ9GDX-463" vertex="1" connectable="0">
          <mxGeometry x="-0.0866" relative="1" as="geometry">
            <mxPoint x="-2" y="-7" as="offset" />
          </mxGeometry>
        </mxCell>
        <mxCell id="J5Li6relta-b_0hQ9GDX-465" value="" style="curved=1;endArrow=classic;html=1;rounded=0;fontSize=17;" parent="1" source="J5Li6relta-b_0hQ9GDX-260" target="J5Li6relta-b_0hQ9GDX-436" edge="1">
          <mxGeometry width="50" height="50" relative="1" as="geometry">
            <mxPoint x="-246" y="352" as="sourcePoint" />
            <mxPoint x="-690" y="130" as="targetPoint" />
            <Array as="points">
              <mxPoint x="-360" y="440" />
            </Array>
          </mxGeometry>
        </mxCell>
        <mxCell id="J5Li6relta-b_0hQ9GDX-466" value="0-9" style="edgeLabel;html=1;align=center;verticalAlign=middle;resizable=0;points=[];fontSize=17;" parent="J5Li6relta-b_0hQ9GDX-465" vertex="1" connectable="0">
          <mxGeometry x="-0.0866" relative="1" as="geometry">
            <mxPoint x="25" y="3" as="offset" />
          </mxGeometry>
        </mxCell>
        <mxCell id="J5Li6relta-b_0hQ9GDX-467" value="" style="curved=1;endArrow=classic;html=1;rounded=0;fontSize=17;" parent="1" source="J5Li6relta-b_0hQ9GDX-209" target="J5Li6relta-b_0hQ9GDX-436" edge="1">
          <mxGeometry width="50" height="50" relative="1" as="geometry">
            <mxPoint x="-186" y="112" as="sourcePoint" />
            <mxPoint x="-630" y="-110" as="targetPoint" />
            <Array as="points">
              <mxPoint x="-290" y="340" />
            </Array>
          </mxGeometry>
        </mxCell>
        <mxCell id="COhdz0LmtiyPBc3kbHAe-54" value="&lt;span style=&quot;font-size: 17px;&quot;&gt;0-9&lt;/span&gt;" style="edgeLabel;html=1;align=center;verticalAlign=middle;resizable=0;points=[];" parent="J5Li6relta-b_0hQ9GDX-467" vertex="1" connectable="0">
          <mxGeometry x="-0.03" relative="1" as="geometry">
            <mxPoint x="-4" y="-24" as="offset" />
          </mxGeometry>
        </mxCell>
        <mxCell id="J5Li6relta-b_0hQ9GDX-475" value="79" style="ellipse;shape=doubleEllipse;whiteSpace=wrap;html=1;aspect=fixed;fontStyle=1;fontSize=17;" parent="1" vertex="1">
          <mxGeometry x="-380" y="-520" width="40" height="40" as="geometry" />
        </mxCell>
        <mxCell id="J5Li6relta-b_0hQ9GDX-476" value="" style="curved=1;endArrow=classic;html=1;rounded=0;fontSize=17;" parent="1" source="J5Li6relta-b_0hQ9GDX-1" target="J5Li6relta-b_0hQ9GDX-475" edge="1">
          <mxGeometry width="50" height="50" relative="1" as="geometry">
            <mxPoint x="-288" y="-179" as="sourcePoint" />
            <mxPoint x="-492" y="-281" as="targetPoint" />
            <Array as="points" />
          </mxGeometry>
        </mxCell>
        <mxCell id="J5Li6relta-b_0hQ9GDX-478" value="-" style="edgeLabel;html=1;align=center;verticalAlign=middle;resizable=0;points=[];fontSize=21;fontStyle=1" parent="J5Li6relta-b_0hQ9GDX-476" vertex="1" connectable="0">
          <mxGeometry x="0.7199" y="-1" relative="1" as="geometry">
            <mxPoint y="-12" as="offset" />
          </mxGeometry>
        </mxCell>
        <mxCell id="J5Li6relta-b_0hQ9GDX-481" value="77" style="ellipse;shape=doubleEllipse;whiteSpace=wrap;html=1;aspect=fixed;fontStyle=1;fontSize=17;" parent="1" vertex="1">
          <mxGeometry x="-580" y="40" width="40" height="40" as="geometry" />
        </mxCell>
        <mxCell id="J5Li6relta-b_0hQ9GDX-482" value="" style="curved=1;endArrow=classic;html=1;rounded=0;fontSize=17;" parent="1" source="J5Li6relta-b_0hQ9GDX-1" target="J5Li6relta-b_0hQ9GDX-481" edge="1">
          <mxGeometry width="50" height="50" relative="1" as="geometry">
            <mxPoint x="-290" y="-173" as="sourcePoint" />
            <mxPoint x="-490" y="-207" as="targetPoint" />
            <Array as="points" />
          </mxGeometry>
        </mxCell>
        <mxCell id="J5Li6relta-b_0hQ9GDX-483" value="0-9" style="edgeLabel;html=1;align=center;verticalAlign=middle;resizable=0;points=[];fontSize=17;" parent="J5Li6relta-b_0hQ9GDX-482" vertex="1" connectable="0">
          <mxGeometry x="0.7199" y="-1" relative="1" as="geometry">
            <mxPoint y="-7" as="offset" />
          </mxGeometry>
        </mxCell>
        <mxCell id="J5Li6relta-b_0hQ9GDX-486" value="" style="curved=1;endArrow=classic;html=1;rounded=0;fontSize=17;" parent="1" source="J5Li6relta-b_0hQ9GDX-425" target="J5Li6relta-b_0hQ9GDX-488" edge="1">
          <mxGeometry width="50" height="50" relative="1" as="geometry">
            <mxPoint x="-140" y="-420" as="sourcePoint" />
            <mxPoint x="-60" y="-420" as="targetPoint" />
            <Array as="points" />
          </mxGeometry>
        </mxCell>
        <mxCell id="J5Li6relta-b_0hQ9GDX-487" value="u" style="edgeLabel;html=1;align=center;verticalAlign=middle;resizable=0;points=[];fontSize=17;" parent="J5Li6relta-b_0hQ9GDX-486" vertex="1" connectable="0">
          <mxGeometry x="-0.0866" relative="1" as="geometry">
            <mxPoint x="1" y="-10" as="offset" />
          </mxGeometry>
        </mxCell>
        <mxCell id="J5Li6relta-b_0hQ9GDX-488" value="73" style="ellipse;shape=doubleEllipse;whiteSpace=wrap;html=1;aspect=fixed;fontStyle=1;fontSize=17;" parent="1" vertex="1">
          <mxGeometry x="-62" y="-440" width="40" height="40" as="geometry" />
        </mxCell>
        <mxCell id="J5Li6relta-b_0hQ9GDX-489" value="80" style="ellipse;shape=doubleEllipse;whiteSpace=wrap;html=1;aspect=fixed;fontStyle=1;fontSize=17;" parent="1" vertex="1">
          <mxGeometry x="-580" y="-520" width="40" height="40" as="geometry" />
        </mxCell>
        <mxCell id="J5Li6relta-b_0hQ9GDX-490" value="" style="curved=1;endArrow=classic;html=1;rounded=0;fontSize=17;" parent="1" source="J5Li6relta-b_0hQ9GDX-1" target="J5Li6relta-b_0hQ9GDX-489" edge="1">
          <mxGeometry width="50" height="50" relative="1" as="geometry">
            <mxPoint x="-281" y="-187" as="sourcePoint" />
            <mxPoint x="-419" y="-393" as="targetPoint" />
            <Array as="points" />
          </mxGeometry>
        </mxCell>
        <mxCell id="J5Li6relta-b_0hQ9GDX-491" value="&amp;lt;" style="edgeLabel;html=1;align=center;verticalAlign=middle;resizable=0;points=[];fontSize=17;" parent="J5Li6relta-b_0hQ9GDX-490" vertex="1" connectable="0">
          <mxGeometry x="0.7199" y="-1" relative="1" as="geometry">
            <mxPoint y="-7" as="offset" />
          </mxGeometry>
        </mxCell>
        <mxCell id="J5Li6relta-b_0hQ9GDX-492" value="" style="curved=1;endArrow=classic;html=1;rounded=0;fontSize=17;" parent="1" source="J5Li6relta-b_0hQ9GDX-1" target="J5Li6relta-b_0hQ9GDX-494" edge="1">
          <mxGeometry width="50" height="50" relative="1" as="geometry">
            <mxPoint x="-286" y="-183" as="sourcePoint" />
            <mxPoint x="-454" y="-318" as="targetPoint" />
            <Array as="points" />
          </mxGeometry>
        </mxCell>
        <mxCell id="J5Li6relta-b_0hQ9GDX-493" value="&amp;gt;" style="edgeLabel;html=1;align=center;verticalAlign=middle;resizable=0;points=[];fontSize=17;" parent="J5Li6relta-b_0hQ9GDX-492" vertex="1" connectable="0">
          <mxGeometry x="0.7199" y="-1" relative="1" as="geometry">
            <mxPoint y="-4" as="offset" />
          </mxGeometry>
        </mxCell>
        <mxCell id="J5Li6relta-b_0hQ9GDX-494" value="83" style="ellipse;shape=doubleEllipse;whiteSpace=wrap;html=1;aspect=fixed;fontStyle=1;fontSize=17;" parent="1" vertex="1">
          <mxGeometry x="-580" y="-440" width="40" height="40" as="geometry" />
        </mxCell>
        <mxCell id="J5Li6relta-b_0hQ9GDX-495" value="85" style="ellipse;shape=doubleEllipse;whiteSpace=wrap;html=1;aspect=fixed;fontStyle=1;fontSize=17;" parent="1" vertex="1">
          <mxGeometry x="-580" y="-360" width="40" height="40" as="geometry" />
        </mxCell>
        <mxCell id="J5Li6relta-b_0hQ9GDX-496" value="" style="curved=1;endArrow=classic;html=1;rounded=0;fontSize=17;" parent="1" source="J5Li6relta-b_0hQ9GDX-1" target="J5Li6relta-b_0hQ9GDX-495" edge="1">
          <mxGeometry width="50" height="50" relative="1" as="geometry">
            <mxPoint x="-288" y="-180" as="sourcePoint" />
            <mxPoint x="-492" y="-290" as="targetPoint" />
            <Array as="points" />
          </mxGeometry>
        </mxCell>
        <mxCell id="J5Li6relta-b_0hQ9GDX-497" value="=" style="edgeLabel;html=1;align=center;verticalAlign=middle;resizable=0;points=[];fontSize=17;" parent="J5Li6relta-b_0hQ9GDX-496" vertex="1" connectable="0">
          <mxGeometry x="0.7199" y="-1" relative="1" as="geometry">
            <mxPoint y="-4" as="offset" />
          </mxGeometry>
        </mxCell>
        <mxCell id="J5Li6relta-b_0hQ9GDX-498" value="" style="curved=1;endArrow=classic;html=1;rounded=0;fontSize=17;" parent="1" source="J5Li6relta-b_0hQ9GDX-489" target="J5Li6relta-b_0hQ9GDX-500" edge="1">
          <mxGeometry width="50" height="50" relative="1" as="geometry">
            <mxPoint x="-690" y="-506" as="sourcePoint" />
            <mxPoint x="-780" y="-520" as="targetPoint" />
            <Array as="points" />
          </mxGeometry>
        </mxCell>
        <mxCell id="J5Li6relta-b_0hQ9GDX-499" value="=" style="edgeLabel;html=1;align=center;verticalAlign=middle;resizable=0;points=[];fontSize=17;" parent="J5Li6relta-b_0hQ9GDX-498" vertex="1" connectable="0">
          <mxGeometry x="0.7199" y="-1" relative="1" as="geometry">
            <mxPoint x="29" y="-9" as="offset" />
          </mxGeometry>
        </mxCell>
        <mxCell id="J5Li6relta-b_0hQ9GDX-500" value="81" style="ellipse;shape=doubleEllipse;whiteSpace=wrap;html=1;aspect=fixed;fontStyle=1;fontSize=17;" parent="1" vertex="1">
          <mxGeometry x="-700" y="-520" width="40" height="40" as="geometry" />
        </mxCell>
        <mxCell id="J5Li6relta-b_0hQ9GDX-503" value="" style="curved=1;endArrow=classic;html=1;rounded=0;fontSize=17;" parent="1" source="J5Li6relta-b_0hQ9GDX-489" target="J5Li6relta-b_0hQ9GDX-505" edge="1">
          <mxGeometry width="50" height="50" relative="1" as="geometry">
            <mxPoint x="-700" y="-600" as="sourcePoint" />
            <mxPoint x="-780" y="-600" as="targetPoint" />
            <Array as="points">
              <mxPoint x="-590" y="-570" />
            </Array>
          </mxGeometry>
        </mxCell>
        <mxCell id="J5Li6relta-b_0hQ9GDX-504" value="&amp;gt;" style="edgeLabel;html=1;align=center;verticalAlign=middle;resizable=0;points=[];fontSize=17;" parent="J5Li6relta-b_0hQ9GDX-503" vertex="1" connectable="0">
          <mxGeometry x="0.7199" y="-1" relative="1" as="geometry">
            <mxPoint x="29" y="17" as="offset" />
          </mxGeometry>
        </mxCell>
        <mxCell id="J5Li6relta-b_0hQ9GDX-505" value="82" style="ellipse;shape=doubleEllipse;whiteSpace=wrap;html=1;aspect=fixed;fontStyle=1;fontSize=17;" parent="1" vertex="1">
          <mxGeometry x="-700" y="-600" width="40" height="40" as="geometry" />
        </mxCell>
        <mxCell id="J5Li6relta-b_0hQ9GDX-506" value="" style="curved=1;endArrow=classic;html=1;rounded=0;fontSize=17;" parent="1" source="J5Li6relta-b_0hQ9GDX-494" target="J5Li6relta-b_0hQ9GDX-508" edge="1">
          <mxGeometry width="50" height="50" relative="1" as="geometry">
            <mxPoint x="-720" y="-450" as="sourcePoint" />
            <mxPoint x="-800" y="-450" as="targetPoint" />
            <Array as="points" />
          </mxGeometry>
        </mxCell>
        <mxCell id="J5Li6relta-b_0hQ9GDX-507" value="=" style="edgeLabel;html=1;align=center;verticalAlign=middle;resizable=0;points=[];fontSize=17;" parent="J5Li6relta-b_0hQ9GDX-506" vertex="1" connectable="0">
          <mxGeometry x="0.7199" y="-1" relative="1" as="geometry">
            <mxPoint x="29" y="-9" as="offset" />
          </mxGeometry>
        </mxCell>
        <mxCell id="J5Li6relta-b_0hQ9GDX-508" value="84" style="ellipse;shape=doubleEllipse;whiteSpace=wrap;html=1;aspect=fixed;fontStyle=1;fontSize=17;" parent="1" vertex="1">
          <mxGeometry x="-700" y="-440" width="40" height="40" as="geometry" />
        </mxCell>
        <mxCell id="J5Li6relta-b_0hQ9GDX-511" value="" style="curved=1;endArrow=classic;html=1;rounded=0;fontSize=17;" parent="1" source="J5Li6relta-b_0hQ9GDX-1" target="J5Li6relta-b_0hQ9GDX-513" edge="1">
          <mxGeometry width="50" height="50" relative="1" as="geometry">
            <mxPoint x="-420" y="-140" as="sourcePoint" />
            <mxPoint x="-520" y="-150" as="targetPoint" />
            <Array as="points" />
          </mxGeometry>
        </mxCell>
        <mxCell id="J5Li6relta-b_0hQ9GDX-512" value="&lt;font style=&quot;font-size: 21px;&quot;&gt;*&lt;/font&gt;" style="edgeLabel;html=1;align=center;verticalAlign=middle;resizable=0;points=[];fontSize=17;fontStyle=1" parent="J5Li6relta-b_0hQ9GDX-511" vertex="1" connectable="0">
          <mxGeometry x="0.7199" y="-1" relative="1" as="geometry">
            <mxPoint x="-3" y="-4" as="offset" />
          </mxGeometry>
        </mxCell>
        <mxCell id="J5Li6relta-b_0hQ9GDX-513" value="69" style="ellipse;shape=doubleEllipse;whiteSpace=wrap;html=1;aspect=fixed;fontStyle=1;fontSize=17;" parent="1" vertex="1">
          <mxGeometry x="-580" y="-280" width="40" height="40" as="geometry" />
        </mxCell>
        <mxCell id="J5Li6relta-b_0hQ9GDX-514" value="" style="curved=1;endArrow=classic;html=1;rounded=0;fontSize=17;" parent="1" source="J5Li6relta-b_0hQ9GDX-1" target="J5Li6relta-b_0hQ9GDX-516" edge="1">
          <mxGeometry width="50" height="50" relative="1" as="geometry">
            <mxPoint x="-289" y="-176" as="sourcePoint" />
            <mxPoint x="-740" y="-180" as="targetPoint" />
            <Array as="points" />
          </mxGeometry>
        </mxCell>
        <mxCell id="J5Li6relta-b_0hQ9GDX-515" value="&lt;b&gt;;&lt;/b&gt;" style="edgeLabel;html=1;align=center;verticalAlign=middle;resizable=0;points=[];fontSize=17;" parent="J5Li6relta-b_0hQ9GDX-514" vertex="1" connectable="0">
          <mxGeometry x="0.7199" y="-1" relative="1" as="geometry">
            <mxPoint y="-4" as="offset" />
          </mxGeometry>
        </mxCell>
        <mxCell id="J5Li6relta-b_0hQ9GDX-516" value="86" style="ellipse;shape=doubleEllipse;whiteSpace=wrap;html=1;aspect=fixed;fontStyle=1;fontSize=17;" parent="1" vertex="1">
          <mxGeometry x="-580" y="-200" width="40" height="40" as="geometry" />
        </mxCell>
        <mxCell id="COhdz0LmtiyPBc3kbHAe-8" value="70" style="ellipse;whiteSpace=wrap;html=1;aspect=fixed;fontSize=17;" parent="1" vertex="1">
          <mxGeometry x="-58" y="120" width="40" height="40" as="geometry" />
        </mxCell>
        <mxCell id="COhdz0LmtiyPBc3kbHAe-9" value="" style="curved=1;endArrow=classic;html=1;rounded=0;entryX=0;entryY=0.5;entryDx=0;entryDy=0;fontSize=17;" parent="1" source="J5Li6relta-b_0hQ9GDX-99" target="COhdz0LmtiyPBc3kbHAe-8" edge="1">
          <mxGeometry width="50" height="50" relative="1" as="geometry">
            <mxPoint x="-110" y="150" as="sourcePoint" />
            <mxPoint x="-100" y="190" as="targetPoint" />
            <Array as="points">
              <mxPoint x="-120" y="130" />
            </Array>
          </mxGeometry>
        </mxCell>
        <mxCell id="COhdz0LmtiyPBc3kbHAe-10" value="i" style="edgeLabel;html=1;align=center;verticalAlign=middle;resizable=0;points=[];fontSize=17;" parent="COhdz0LmtiyPBc3kbHAe-9" vertex="1" connectable="0">
          <mxGeometry x="-0.1074" y="-1" relative="1" as="geometry">
            <mxPoint y="-11" as="offset" />
          </mxGeometry>
        </mxCell>
        <mxCell id="COhdz0LmtiyPBc3kbHAe-11" value="" style="curved=1;endArrow=classic;html=1;rounded=0;exitX=1;exitY=0.5;exitDx=0;exitDy=0;fontSize=17;" parent="1" target="COhdz0LmtiyPBc3kbHAe-13" edge="1">
          <mxGeometry width="50" height="50" relative="1" as="geometry">
            <mxPoint x="-18" y="140" as="sourcePoint" />
            <mxPoint x="62" y="140" as="targetPoint" />
            <Array as="points" />
          </mxGeometry>
        </mxCell>
        <mxCell id="COhdz0LmtiyPBc3kbHAe-12" value="v" style="edgeLabel;html=1;align=center;verticalAlign=middle;resizable=0;points=[];fontSize=17;" parent="COhdz0LmtiyPBc3kbHAe-11" vertex="1" connectable="0">
          <mxGeometry x="-0.0866" relative="1" as="geometry">
            <mxPoint x="1" y="-10" as="offset" />
          </mxGeometry>
        </mxCell>
        <mxCell id="COhdz0LmtiyPBc3kbHAe-13" value="71" style="ellipse;shape=doubleEllipse;whiteSpace=wrap;html=1;aspect=fixed;fontStyle=1;fontSize=17;" parent="1" vertex="1">
          <mxGeometry x="60" y="120" width="40" height="40" as="geometry" />
        </mxCell>
        <mxCell id="COhdz0LmtiyPBc3kbHAe-20" value="" style="curved=1;endArrow=classic;html=1;rounded=0;fontSize=17;" parent="1" source="J5Li6relta-b_0hQ9GDX-481" target="J5Li6relta-b_0hQ9GDX-481" edge="1">
          <mxGeometry width="50" height="50" relative="1" as="geometry">
            <mxPoint x="-560" y="100" as="sourcePoint" />
            <mxPoint x="-520" y="110" as="targetPoint" />
            <Array as="points">
              <mxPoint x="-540" y="120" />
            </Array>
          </mxGeometry>
        </mxCell>
        <mxCell id="COhdz0LmtiyPBc3kbHAe-21" value="0-9" style="edgeLabel;html=1;align=center;verticalAlign=middle;resizable=0;points=[];fontSize=17;" parent="COhdz0LmtiyPBc3kbHAe-20" vertex="1" connectable="0">
          <mxGeometry x="-0.1074" y="-1" relative="1" as="geometry">
            <mxPoint x="6" y="9" as="offset" />
          </mxGeometry>
        </mxCell>
        <mxCell id="COhdz0LmtiyPBc3kbHAe-22" value="87" style="ellipse;whiteSpace=wrap;html=1;aspect=fixed;fontSize=17;" parent="1" vertex="1">
          <mxGeometry x="-700" y="40" width="40" height="40" as="geometry" />
        </mxCell>
        <mxCell id="COhdz0LmtiyPBc3kbHAe-24" value="" style="curved=1;endArrow=classic;html=1;rounded=0;fontSize=17;" parent="1" source="J5Li6relta-b_0hQ9GDX-481" target="COhdz0LmtiyPBc3kbHAe-22" edge="1">
          <mxGeometry width="50" height="50" relative="1" as="geometry">
            <mxPoint x="-740" y="20" as="sourcePoint" />
            <mxPoint x="-660" y="20" as="targetPoint" />
            <Array as="points" />
          </mxGeometry>
        </mxCell>
        <mxCell id="COhdz0LmtiyPBc3kbHAe-25" value="&lt;b&gt;.&lt;/b&gt;" style="edgeLabel;html=1;align=center;verticalAlign=middle;resizable=0;points=[];fontSize=17;" parent="COhdz0LmtiyPBc3kbHAe-24" vertex="1" connectable="0">
          <mxGeometry x="-0.1074" y="-1" relative="1" as="geometry">
            <mxPoint y="-11" as="offset" />
          </mxGeometry>
        </mxCell>
        <mxCell id="COhdz0LmtiyPBc3kbHAe-29" value="88" style="ellipse;shape=doubleEllipse;whiteSpace=wrap;html=1;aspect=fixed;fontStyle=1;fontSize=17;" parent="1" vertex="1">
          <mxGeometry x="-820" y="40" width="40" height="40" as="geometry" />
        </mxCell>
        <mxCell id="COhdz0LmtiyPBc3kbHAe-30" value="" style="curved=1;endArrow=classic;html=1;rounded=0;fontSize=17;" parent="1" source="COhdz0LmtiyPBc3kbHAe-29" target="COhdz0LmtiyPBc3kbHAe-29" edge="1">
          <mxGeometry width="50" height="50" relative="1" as="geometry">
            <mxPoint x="-840" y="120" as="sourcePoint" />
            <mxPoint x="-800" y="130" as="targetPoint" />
            <Array as="points">
              <mxPoint x="-820" y="120" />
            </Array>
          </mxGeometry>
        </mxCell>
        <mxCell id="COhdz0LmtiyPBc3kbHAe-31" value="0-9" style="edgeLabel;html=1;align=center;verticalAlign=middle;resizable=0;points=[];fontSize=17;" parent="COhdz0LmtiyPBc3kbHAe-30" vertex="1" connectable="0">
          <mxGeometry x="-0.1074" y="-1" relative="1" as="geometry">
            <mxPoint x="6" y="9" as="offset" />
          </mxGeometry>
        </mxCell>
        <mxCell id="COhdz0LmtiyPBc3kbHAe-32" value="" style="curved=1;endArrow=classic;html=1;rounded=0;fontSize=17;" parent="1" source="COhdz0LmtiyPBc3kbHAe-22" target="COhdz0LmtiyPBc3kbHAe-29" edge="1">
          <mxGeometry width="50" height="50" relative="1" as="geometry">
            <mxPoint x="-680" y="130" as="sourcePoint" />
            <mxPoint x="-760" y="130" as="targetPoint" />
            <Array as="points" />
          </mxGeometry>
        </mxCell>
        <mxCell id="COhdz0LmtiyPBc3kbHAe-33" value="0-9" style="edgeLabel;html=1;align=center;verticalAlign=middle;resizable=0;points=[];fontSize=17;" parent="COhdz0LmtiyPBc3kbHAe-32" vertex="1" connectable="0">
          <mxGeometry x="-0.1074" y="-1" relative="1" as="geometry">
            <mxPoint y="-11" as="offset" />
          </mxGeometry>
        </mxCell>
        <mxCell id="COhdz0LmtiyPBc3kbHAe-34" value="89" style="ellipse;shape=doubleEllipse;whiteSpace=wrap;html=1;aspect=fixed;fontStyle=1;fontSize=17;" parent="1" vertex="1">
          <mxGeometry x="-580" y="-120" width="40" height="40" as="geometry" />
        </mxCell>
        <mxCell id="COhdz0LmtiyPBc3kbHAe-35" value="" style="curved=1;endArrow=classic;html=1;rounded=0;fontSize=17;" parent="1" source="J5Li6relta-b_0hQ9GDX-1" target="COhdz0LmtiyPBc3kbHAe-34" edge="1">
          <mxGeometry width="50" height="50" relative="1" as="geometry">
            <mxPoint x="-290" y="-170" as="sourcePoint" />
            <mxPoint x="-530" y="-170" as="targetPoint" />
            <Array as="points" />
          </mxGeometry>
        </mxCell>
        <mxCell id="COhdz0LmtiyPBc3kbHAe-36" value="&lt;b&gt;&lt;font style=&quot;font-size: 20px;&quot;&gt;.&lt;/font&gt;&lt;/b&gt;" style="edgeLabel;html=1;align=center;verticalAlign=middle;resizable=0;points=[];fontSize=17;" parent="COhdz0LmtiyPBc3kbHAe-35" vertex="1" connectable="0">
          <mxGeometry x="0.7199" y="-1" relative="1" as="geometry">
            <mxPoint x="-2" y="-14" as="offset" />
          </mxGeometry>
        </mxCell>
        <mxCell id="COhdz0LmtiyPBc3kbHAe-37" value="90" style="ellipse;shape=doubleEllipse;whiteSpace=wrap;html=1;aspect=fixed;fontStyle=1;fontSize=17;" parent="1" vertex="1">
          <mxGeometry x="-580" y="-40" width="40" height="40" as="geometry" />
        </mxCell>
        <mxCell id="COhdz0LmtiyPBc3kbHAe-38" value="" style="curved=1;endArrow=classic;html=1;rounded=0;fontSize=17;" parent="1" source="J5Li6relta-b_0hQ9GDX-1" target="COhdz0LmtiyPBc3kbHAe-37" edge="1">
          <mxGeometry width="50" height="50" relative="1" as="geometry">
            <mxPoint x="-289" y="-165" as="sourcePoint" />
            <mxPoint x="-531" y="-95" as="targetPoint" />
            <Array as="points" />
          </mxGeometry>
        </mxCell>
        <mxCell id="COhdz0LmtiyPBc3kbHAe-39" value="&lt;b&gt;,&lt;/b&gt;" style="edgeLabel;html=1;align=center;verticalAlign=middle;resizable=0;points=[];fontSize=17;" parent="COhdz0LmtiyPBc3kbHAe-38" vertex="1" connectable="0">
          <mxGeometry x="0.7199" y="-1" relative="1" as="geometry">
            <mxPoint x="-2" y="-14" as="offset" />
          </mxGeometry>
        </mxCell>
        <mxCell id="COhdz0LmtiyPBc3kbHAe-41" value="" style="curved=1;endArrow=classic;html=1;rounded=0;fontSize=17;" parent="1" source="AGjX_zBadpIOmrIglI3z-1" target="COhdz0LmtiyPBc3kbHAe-43" edge="1">
          <mxGeometry width="50" height="50" relative="1" as="geometry">
            <mxPoint x="-580" y="-660" as="sourcePoint" />
            <mxPoint x="-800" y="-690" as="targetPoint" />
            <Array as="points" />
          </mxGeometry>
        </mxCell>
        <mxCell id="COhdz0LmtiyPBc3kbHAe-42" value="=" style="edgeLabel;html=1;align=center;verticalAlign=middle;resizable=0;points=[];fontSize=17;" parent="COhdz0LmtiyPBc3kbHAe-41" vertex="1" connectable="0">
          <mxGeometry x="0.7199" y="-1" relative="1" as="geometry">
            <mxPoint x="29" y="-9" as="offset" />
          </mxGeometry>
        </mxCell>
        <mxCell id="COhdz0LmtiyPBc3kbHAe-43" value="92" style="ellipse;shape=doubleEllipse;whiteSpace=wrap;html=1;aspect=fixed;fontStyle=1;fontSize=17;" parent="1" vertex="1">
          <mxGeometry x="-700" y="-680" width="40" height="40" as="geometry" />
        </mxCell>
        <mxCell id="COhdz0LmtiyPBc3kbHAe-44" value="" style="curved=1;endArrow=classic;html=1;rounded=0;fontSize=17;" parent="1" source="J5Li6relta-b_0hQ9GDX-1" target="AGjX_zBadpIOmrIglI3z-1" edge="1">
          <mxGeometry width="50" height="50" relative="1" as="geometry">
            <mxPoint x="-277" y="-189" as="sourcePoint" />
            <mxPoint x="-549.922579489518" y="-642.7244219820307" as="targetPoint" />
            <Array as="points" />
          </mxGeometry>
        </mxCell>
        <mxCell id="COhdz0LmtiyPBc3kbHAe-45" value=":" style="edgeLabel;html=1;align=center;verticalAlign=middle;resizable=0;points=[];fontSize=21;fontStyle=1" parent="COhdz0LmtiyPBc3kbHAe-44" vertex="1" connectable="0">
          <mxGeometry x="0.7199" y="-1" relative="1" as="geometry">
            <mxPoint y="-12" as="offset" />
          </mxGeometry>
        </mxCell>
        <mxCell id="COhdz0LmtiyPBc3kbHAe-47" value="93" style="ellipse;shape=doubleEllipse;whiteSpace=wrap;html=1;aspect=fixed;fontStyle=1;fontSize=17;" parent="1" vertex="1">
          <mxGeometry x="-700" y="-280" width="40" height="40" as="geometry" />
        </mxCell>
        <mxCell id="COhdz0LmtiyPBc3kbHAe-48" value="94" style="ellipse;shape=doubleEllipse;whiteSpace=wrap;html=1;aspect=fixed;fontStyle=1;fontSize=17;" parent="1" vertex="1">
          <mxGeometry x="-700" y="-120" width="40" height="40" as="geometry" />
        </mxCell>
        <mxCell id="COhdz0LmtiyPBc3kbHAe-49" value="" style="curved=1;endArrow=classic;html=1;rounded=0;fontSize=17;" parent="1" source="J5Li6relta-b_0hQ9GDX-1" target="COhdz0LmtiyPBc3kbHAe-47" edge="1">
          <mxGeometry width="50" height="50" relative="1" as="geometry">
            <mxPoint x="-290" y="-170" as="sourcePoint" />
            <mxPoint x="-530" y="-170" as="targetPoint" />
            <Array as="points" />
          </mxGeometry>
        </mxCell>
        <mxCell id="COhdz0LmtiyPBc3kbHAe-50" value="(" style="edgeLabel;html=1;align=center;verticalAlign=middle;resizable=0;points=[];fontSize=17;" parent="COhdz0LmtiyPBc3kbHAe-49" vertex="1" connectable="0">
          <mxGeometry x="0.7199" y="-1" relative="1" as="geometry">
            <mxPoint y="-4" as="offset" />
          </mxGeometry>
        </mxCell>
        <mxCell id="COhdz0LmtiyPBc3kbHAe-51" value="" style="curved=1;endArrow=classic;html=1;rounded=0;fontSize=17;" parent="1" source="J5Li6relta-b_0hQ9GDX-1" target="COhdz0LmtiyPBc3kbHAe-48" edge="1">
          <mxGeometry width="50" height="50" relative="1" as="geometry">
            <mxPoint x="-290" y="-174" as="sourcePoint" />
            <mxPoint x="-650" y="-246" as="targetPoint" />
            <Array as="points" />
          </mxGeometry>
        </mxCell>
        <mxCell id="COhdz0LmtiyPBc3kbHAe-52" value=")" style="edgeLabel;html=1;align=center;verticalAlign=middle;resizable=0;points=[];fontSize=17;" parent="COhdz0LmtiyPBc3kbHAe-51" vertex="1" connectable="0">
          <mxGeometry x="0.7199" y="-1" relative="1" as="geometry">
            <mxPoint y="-4" as="offset" />
          </mxGeometry>
        </mxCell>
        <mxCell id="AGjX_zBadpIOmrIglI3z-1" value="92" style="ellipse;shape=doubleEllipse;whiteSpace=wrap;html=1;aspect=fixed;fontStyle=1;fontSize=17;" parent="1" vertex="1">
          <mxGeometry x="-580" y="-680" width="40" height="40" as="geometry" />
        </mxCell>
      </root>
    </mxGraphModel>
  </diagram>
</mxfile>
